<?xml version="1.0" encoding="UTF-8"?>
<svg xmlns="http://www.w3.org/2000/svg" xmlns:xlink="http://www.w3.org/1999/xlink" width="221pt" height="179pt" viewBox="0 0 221 179" version="1.1">
<g id="surface7">
<path style="fill:none;stroke-width:1.25;stroke-linecap:square;stroke-linejoin:miter;stroke:rgb(0%,0%,0%);stroke-opacity:1;stroke-miterlimit:3.25;" d="M 273.226563 102.839844 L 273.558594 102.839844 " transform="matrix(1,0,0,1,-83,-6)"/>
<path style="fill:none;stroke-width:1.25;stroke-linecap:square;stroke-linejoin:miter;stroke:rgb(0%,0%,0%);stroke-opacity:1;stroke-miterlimit:3.25;" d="M 122.765625 108.167969 L 123.097656 108.167969 " transform="matrix(1,0,0,1,-83,-6)"/>
<path style="fill:none;stroke-width:1.25;stroke-linecap:square;stroke-linejoin:miter;stroke:rgb(0%,0%,0%);stroke-opacity:1;stroke-miterlimit:3.25;" d="M 199.328125 127.808594 L 199.660156 127.472656 " transform="matrix(1,0,0,1,-83,-6)"/>
<path style="fill:none;stroke-width:1.25;stroke-linecap:square;stroke-linejoin:miter;stroke:rgb(0%,0%,0%);stroke-opacity:1;stroke-miterlimit:3.25;" d="M 177.691406 29.273438 L 180.820313 28.207031 L 183.429688 27.144531 L 185.691406 26.015625 L 187.769531 24.761719 L 189.835938 23.320313 L 192.0625 21.625 L 194.46875 19.71875 L 196.9375 17.726563 L 199.34375 15.78125 L 201.570313 14.019531 L 203.488281 12.574219 L 205.015625 11.550781 L 206.199219 10.910156 L 207.136719 10.59375 L 207.914063 10.539063 L 208.625 10.675781 L 209.351563 10.949219 L 210.132813 11.316406 L 210.949219 11.769531 L 211.785156 12.304688 L 212.613281 12.90625 L 213.417969 13.574219 L 214.183594 14.300781 L 214.898438 15.09375 L 215.5625 15.972656 L 216.171875 16.949219 L 216.71875 18.035156 L 217.203125 19.242188 L 217.632813 20.558594 L 218.015625 21.921875 L 218.375 23.28125 L 218.722656 24.585938 L 219.078125 25.78125 L 219.457031 26.824219 L 219.875 27.753906 L 220.359375 28.621094 L 220.929688 29.472656 L 221.605469 30.355469 L 222.410156 31.324219 L 223.371094 32.394531 L 224.53125 33.542969 L 225.933594 34.75 L 227.617188 35.996094 L 229.621094 37.265625 " transform="matrix(1,0,0,1,-83,-6)"/>
<path style="fill:none;stroke-width:1.25;stroke-linecap:square;stroke-linejoin:miter;stroke:rgb(0%,0%,0%);stroke-opacity:1;stroke-miterlimit:3.25;" d="M 177.691406 29.273438 L 176.820313 28.828125 L 175.234375 28.730469 L 173.171875 28.917969 L 170.878906 29.328125 L 168.59375 29.894531 L 166.375 30.683594 L 163.988281 31.9375 L 161.179688 33.925781 L 157.691406 36.914063 L 153.292969 41.125 L 148.109375 46.285156 L 142.5 51.808594 L 136.816406 57.101563 L 131.421875 61.5625 " transform="matrix(1,0,0,1,-83,-6)"/>
<path style="fill:none;stroke-width:1.25;stroke-linecap:square;stroke-linejoin:miter;stroke:rgb(0%,0%,0%);stroke-opacity:1;stroke-miterlimit:3.25;" d="M 177.691406 29.273438 L 167.621094 38.84375 L 162.046875 46.25 " transform="matrix(1,0,0,1,-83,-6)"/>
<path style="fill:none;stroke-width:1.25;stroke-linecap:square;stroke-linejoin:miter;stroke:rgb(0%,0%,0%);stroke-opacity:1;stroke-miterlimit:3.25;" d="M 180.351563 30.9375 L 180.6875 33.933594 " transform="matrix(1,0,0,1,-83,-6)"/>
<path style="fill:none;stroke-width:1.25;stroke-linecap:square;stroke-linejoin:miter;stroke:rgb(0%,0%,0%);stroke-opacity:1;stroke-miterlimit:3.25;" d="M 180.6875 33.933594 L 169.367188 49.582031 " transform="matrix(1,0,0,1,-83,-6)"/>
<path style="fill:none;stroke-width:1.25;stroke-linecap:square;stroke-linejoin:miter;stroke:rgb(0%,0%,0%);stroke-opacity:1;stroke-miterlimit:3.25;" d="M 180.6875 33.933594 L 185.757813 35.988281 L 191.699219 36.976563 L 197.664063 37.335938 L 202.824219 37.480469 L 206.800781 37.714844 L 209.914063 38.144531 L 212.550781 38.859375 L 215.074219 39.960938 L 217.554688 41.628906 L 219.890625 44.089844 L 221.964844 47.582031 " transform="matrix(1,0,0,1,-83,-6)"/>
<path style="fill:none;stroke-width:1.25;stroke-linecap:square;stroke-linejoin:miter;stroke:rgb(0%,0%,0%);stroke-opacity:1;stroke-miterlimit:3.25;" d="M 229.621094 37.265625 L 234.023438 35.886719 L 237.601563 35.160156 L 240.480469 34.933594 L 242.777344 35.0625 L 244.617188 35.402344 L 246.117188 35.832031 L 247.421875 36.382813 L 248.671875 37.144531 L 250.007813 38.203125 L 251.578125 39.652344 L 253.507813 41.5625 L 255.773438 43.859375 L 258.285156 46.375 L 260.925781 48.953125 L 263.605469 51.425781 L 266.214844 53.632813 L 268.664063 55.546875 L 270.875 57.238281 L 272.765625 58.777344 L 274.253906 60.238281 L 275.261719 61.691406 L 275.785156 63.171875 L 275.921875 64.648438 L 275.769531 66.097656 L 275.425781 67.496094 L 274.980469 68.808594 L 274.492188 70.054688 L 273.90625 71.3125 L 273.175781 72.667969 L 272.25 74.207031 L 271.070313 76.019531 L 269.617188 78.164063 L 267.945313 80.660156 L 266.113281 83.496094 L 264.191406 86.671875 L 262.242188 90.191406 " transform="matrix(1,0,0,1,-83,-6)"/>
<path style="fill:none;stroke-width:1.25;stroke-linecap:square;stroke-linejoin:miter;stroke:rgb(0%,0%,0%);stroke-opacity:1;stroke-miterlimit:3.25;" d="M 229.621094 37.265625 L 240.875 44.746094 L 246.445313 48.960938 L 248.953125 51.523438 L 250.601563 53.777344 L 251.828125 55.980469 L 252.644531 58.125 L 253.023438 60.175781 L 252.835938 62.027344 L 251.921875 63.5625 " transform="matrix(1,0,0,1,-83,-6)"/>
<path style="fill:none;stroke-width:1.25;stroke-linecap:square;stroke-linejoin:miter;stroke:rgb(0%,0%,0%);stroke-opacity:1;stroke-miterlimit:3.25;" d="M 162.046875 46.25 L 158.949219 47.1875 L 155.484375 49.335938 L 150.804688 53.515625 L 144.0625 60.535156 L 134.414063 71.21875 " transform="matrix(1,0,0,1,-83,-6)"/>
<path style="fill:none;stroke-width:1.25;stroke-linecap:square;stroke-linejoin:miter;stroke:rgb(0%,0%,0%);stroke-opacity:1;stroke-miterlimit:3.25;" d="M 162.046875 46.25 L 169.367188 49.582031 " transform="matrix(1,0,0,1,-83,-6)"/>
<path style="fill:none;stroke-width:1.25;stroke-linecap:square;stroke-linejoin:miter;stroke:rgb(0%,0%,0%);stroke-opacity:1;stroke-miterlimit:3.25;" d="M 221.964844 47.582031 L 227.628906 48.066406 L 234.820313 51.953125 L 243.074219 57.648438 L 251.921875 63.5625 " transform="matrix(1,0,0,1,-83,-6)"/>
<path style="fill:none;stroke-width:1.25;stroke-linecap:square;stroke-linejoin:miter;stroke:rgb(0%,0%,0%);stroke-opacity:1;stroke-miterlimit:3.25;" d="M 221.964844 47.582031 L 217.96875 54.574219 " transform="matrix(1,0,0,1,-83,-6)"/>
<path style="fill:none;stroke-width:1.25;stroke-linecap:square;stroke-linejoin:miter;stroke:rgb(0%,0%,0%);stroke-opacity:1;stroke-miterlimit:3.25;" d="M 169.367188 49.582031 L 162.730469 56.738281 L 158.1875 62.039063 L 155.269531 65.894531 L 153.5 68.722656 L 152.417969 70.933594 L 151.589844 72.914063 L 150.863281 74.816406 L 150.234375 76.679688 L 149.695313 78.542969 L 149.238281 80.445313 L 148.863281 82.429688 L 148.582031 84.511719 L 148.433594 86.703125 L 148.464844 89.011719 L 148.707031 91.441406 L 149.203125 94 L 149.9375 96.652344 L 150.824219 99.308594 L 151.753906 101.863281 L 152.628906 104.214844 L 153.347656 106.269531 L 153.84375 107.960938 L 154.140625 109.34375 L 154.269531 110.492188 L 154.269531 111.484375 L 154.179688 112.394531 L 154.046875 113.292969 L 153.96875 114.210938 L 154.0625 115.183594 L 154.449219 116.238281 L 155.234375 117.402344 L 156.53125 118.699219 L 158.277344 120.089844 L 160.304688 121.503906 L 162.441406 122.867188 L 164.523438 124.097656 L 166.386719 125.128906 L 168.011719 125.949219 L 169.53125 126.601563 L 171.097656 127.15625 L 172.867188 127.660156 L 174.980469 128.175781 L 177.527344 128.777344 L 180.464844 129.585938 L 183.730469 130.71875 L 187.265625 132.304688 L 191.003906 134.464844 " transform="matrix(1,0,0,1,-83,-6)"/>
<path style="fill:none;stroke-width:1.25;stroke-linecap:square;stroke-linejoin:miter;stroke:rgb(0%,0%,0%);stroke-opacity:1;stroke-miterlimit:3.25;" d="M 217.96875 54.574219 L 214.9375 52.300781 L 211.578125 51.5 L 208.242188 51.449219 L 205.292969 51.4375 L 202.996094 50.914063 L 201.292969 49.972656 L 200.042969 48.867188 L 199.105469 47.859375 L 198.34375 47.152344 L 197.675781 46.738281 L 197.03125 46.550781 L 196.332031 46.527344 L 195.523438 46.621094 L 194.613281 46.8125 L 193.617188 47.097656 L 192.558594 47.472656 L 191.449219 47.9375 L 190.257813 48.527344 L 188.9375 49.28125 L 187.453125 50.246094 L 185.773438 51.449219 L 183.914063 52.890625 L 181.902344 54.558594 L 179.769531 56.433594 L 177.523438 58.554688 L 175.101563 61.152344 L 172.410156 64.503906 L 169.367188 68.886719 " transform="matrix(1,0,0,1,-83,-6)"/>
<path style="fill:none;stroke-width:1.25;stroke-linecap:square;stroke-linejoin:miter;stroke:rgb(0%,0%,0%);stroke-opacity:1;stroke-miterlimit:3.25;" d="M 217.96875 54.574219 L 226.957031 70.886719 " transform="matrix(1,0,0,1,-83,-6)"/>
<path style="fill:none;stroke-width:1.25;stroke-linecap:square;stroke-linejoin:miter;stroke:rgb(0%,0%,0%);stroke-opacity:1;stroke-miterlimit:3.25;" d="M 131.421875 61.5625 L 125.429688 64.894531 " transform="matrix(1,0,0,1,-83,-6)"/>
<path style="fill:none;stroke-width:1.25;stroke-linecap:square;stroke-linejoin:miter;stroke:rgb(0%,0%,0%);stroke-opacity:1;stroke-miterlimit:3.25;" d="M 131.421875 61.5625 L 125.429688 64.894531 " transform="matrix(1,0,0,1,-83,-6)"/>
<path style="fill:none;stroke-width:1.25;stroke-linecap:square;stroke-linejoin:miter;stroke:rgb(0%,0%,0%);stroke-opacity:1;stroke-miterlimit:3.25;" d="M 189.339844 63.230469 L 183.191406 69.1875 L 182.101563 72.464844 L 182.964844 75.660156 L 186.011719 77.542969 " transform="matrix(1,0,0,1,-83,-6)"/>
<path style="fill:none;stroke-width:1.25;stroke-linecap:square;stroke-linejoin:miter;stroke:rgb(0%,0%,0%);stroke-opacity:1;stroke-miterlimit:3.25;" d="M 203.988281 63.5625 L 202.605469 59.765625 L 200.511719 56.234375 L 198.535156 53.507813 L 197.082031 51.800781 L 195.925781 50.84375 L 194.785156 50.335938 L 193.523438 50.179688 L 192.113281 50.414063 L 190.523438 51.070313 L 188.746094 52.199219 L 186.78125 53.855469 L 184.683594 56.046875 L 182.601563 58.71875 L 180.679688 61.828125 L 179.09375 65.554688 L 178.023438 70.21875 " transform="matrix(1,0,0,1,-83,-6)"/>
<path style="fill:none;stroke-width:1.25;stroke-linecap:square;stroke-linejoin:miter;stroke:rgb(0%,0%,0%);stroke-opacity:1;stroke-miterlimit:3.25;" d="M 203.988281 63.5625 L 190.339844 68.222656 " transform="matrix(1,0,0,1,-83,-6)"/>
<path style="fill:none;stroke-width:1.25;stroke-linecap:square;stroke-linejoin:miter;stroke:rgb(0%,0%,0%);stroke-opacity:1;stroke-miterlimit:3.25;" d="M 203.988281 63.5625 L 205.984375 68.886719 " transform="matrix(1,0,0,1,-83,-6)"/>
<path style="fill:none;stroke-width:1.25;stroke-linecap:square;stroke-linejoin:miter;stroke:rgb(0%,0%,0%);stroke-opacity:1;stroke-miterlimit:3.25;" d="M 251.921875 63.5625 L 255.117188 66.996094 L 257.136719 69.816406 L 258.121094 72.242188 L 258.1875 74.507813 L 257.472656 76.835938 L 256.101563 79.457031 L 254.222656 82.46875 L 252.011719 85.722656 L 249.644531 89.039063 L 247.3125 92.246094 L 245.191406 95.164063 L 243.457031 97.625 L 242.160156 99.605469 L 241.222656 101.234375 L 240.566406 102.652344 L 240.105469 103.988281 L 239.765625 105.378906 L 239.46875 106.949219 L 239.210938 108.65625 L 239.027344 110.378906 L 238.957031 112.007813 L 239.027344 113.417969 L 239.273438 114.492188 " transform="matrix(1,0,0,1,-83,-6)"/>
<path style="fill:none;stroke-width:1.25;stroke-linecap:square;stroke-linejoin:miter;stroke:rgb(0%,0%,0%);stroke-opacity:1;stroke-miterlimit:3.25;" d="M 125.429688 64.894531 L 124.59375 67.183594 L 124.089844 71.246094 L 123.902344 75.851563 L 124.039063 80.023438 L 124.542969 83.800781 L 125.457031 87.472656 L 126.902344 91.234375 L 129.289063 94.898438 L 133.085938 98.179688 " transform="matrix(1,0,0,1,-83,-6)"/>
<path style="fill:none;stroke-width:1.25;stroke-linecap:square;stroke-linejoin:miter;stroke:rgb(0%,0%,0%);stroke-opacity:1;stroke-miterlimit:3.25;" d="M 169.367188 68.886719 L 166.332031 70.09375 L 165.039063 77.542969 " transform="matrix(1,0,0,1,-83,-6)"/>
<path style="fill:none;stroke-width:1.25;stroke-linecap:square;stroke-linejoin:miter;stroke:rgb(0%,0%,0%);stroke-opacity:1;stroke-miterlimit:3.25;" d="M 169.367188 68.886719 L 178.023438 70.21875 " transform="matrix(1,0,0,1,-83,-6)"/>
<path style="fill:none;stroke-width:1.25;stroke-linecap:square;stroke-linejoin:miter;stroke:rgb(0%,0%,0%);stroke-opacity:1;stroke-miterlimit:3.25;" d="M 205.984375 68.886719 L 210.738281 66.71875 L 212.453125 66.539063 L 213.433594 67.257813 L 214.402344 68.484375 L 215.289063 70.183594 L 215.996094 72.304688 L 216.4375 74.785156 L 216.097656 78.679688 L 213.640625 87.195313 " transform="matrix(1,0,0,1,-83,-6)"/>
<path style="fill:none;stroke-width:1.25;stroke-linecap:square;stroke-linejoin:miter;stroke:rgb(0%,0%,0%);stroke-opacity:1;stroke-miterlimit:3.25;" d="M 205.984375 68.886719 L 204.320313 74.878906 " transform="matrix(1,0,0,1,-83,-6)"/>
<path style="fill:none;stroke-width:1.25;stroke-linecap:square;stroke-linejoin:miter;stroke:rgb(0%,0%,0%);stroke-opacity:1;stroke-miterlimit:3.25;" d="M 178.023438 70.21875 L 177.691406 72.550781 " transform="matrix(1,0,0,1,-83,-6)"/>
<path style="fill:none;stroke-width:1.25;stroke-linecap:square;stroke-linejoin:miter;stroke:rgb(0%,0%,0%);stroke-opacity:1;stroke-miterlimit:3.25;" d="M 226.957031 70.886719 L 235.289063 68.691406 L 239.925781 69.933594 L 244.265625 76.542969 " transform="matrix(1,0,0,1,-83,-6)"/>
<path style="fill:none;stroke-width:1.25;stroke-linecap:square;stroke-linejoin:miter;stroke:rgb(0%,0%,0%);stroke-opacity:1;stroke-miterlimit:3.25;" d="M 226.957031 70.886719 L 218.96875 82.535156 " transform="matrix(1,0,0,1,-83,-6)"/>
<path style="fill:none;stroke-width:1.25;stroke-linecap:square;stroke-linejoin:miter;stroke:rgb(0%,0%,0%);stroke-opacity:1;stroke-miterlimit:3.25;" d="M 188.007813 72.214844 L 192.691406 71.132813 L 195.59375 71.042969 L 197.277344 71.394531 L 198.125 71.949219 L 198.421875 72.621094 L 198.171875 73.542969 L 197.113281 75.050781 L 194.886719 77.042969 L 191.003906 78.542969 " transform="matrix(1,0,0,1,-83,-6)"/>
<path style="fill:none;stroke-width:1.25;stroke-linecap:square;stroke-linejoin:miter;stroke:rgb(0%,0%,0%);stroke-opacity:1;stroke-miterlimit:3.25;" d="M 177.691406 72.550781 L 173.695313 73.511719 L 171.144531 76.730469 L 168.703125 83.535156 " transform="matrix(1,0,0,1,-83,-6)"/>
<path style="fill:none;stroke-width:1.25;stroke-linecap:square;stroke-linejoin:miter;stroke:rgb(0%,0%,0%);stroke-opacity:1;stroke-miterlimit:3.25;" d="M 177.691406 72.550781 L 180.351563 78.542969 " transform="matrix(1,0,0,1,-83,-6)"/>
<path style="fill:none;stroke-width:1.25;stroke-linecap:square;stroke-linejoin:miter;stroke:rgb(0%,0%,0%);stroke-opacity:1;stroke-miterlimit:3.25;" d="M 204.320313 74.878906 L 198.648438 80.679688 L 194.453125 84.046875 L 191.375 85.71875 L 189.054688 86.300781 L 187.167969 86.15625 L 185.40625 85.617188 L 183.589844 84.828125 L 181.679688 83.746094 L 179.660156 82.292969 L 177.617188 80.152344 L 175.691406 76.875 " transform="matrix(1,0,0,1,-83,-6)"/>
<path style="fill:none;stroke-width:1.25;stroke-linecap:square;stroke-linejoin:miter;stroke:rgb(0%,0%,0%);stroke-opacity:1;stroke-miterlimit:3.25;" d="M 204.320313 74.878906 L 208.453125 77.191406 L 210.0625 79.019531 L 210.246094 80.828125 L 208.800781 84.652344 L 202.324219 93.519531 " transform="matrix(1,0,0,1,-83,-6)"/>
<path style="fill:none;stroke-width:1.25;stroke-linecap:square;stroke-linejoin:miter;stroke:rgb(0%,0%,0%);stroke-opacity:1;stroke-miterlimit:3.25;" d="M 129.089844 75.546875 L 130.597656 75.527344 L 131.839844 75.933594 L 132.898438 76.726563 L 133.84375 77.882813 L 134.75 79.367188 L 135.628906 81.175781 L 136.472656 83.328125 L 137.273438 85.820313 L 138.019531 88.671875 L 138.699219 91.859375 L 139.292969 95.367188 L 139.78125 99.160156 L 140.152344 103.214844 L 140.425781 107.410156 L 140.679688 111.519531 L 141 115.300781 L 141.457031 118.519531 L 142.289063 121.195313 L 144.046875 123.910156 L 147.324219 127.335938 L 152.722656 132.132813 " transform="matrix(1,0,0,1,-83,-6)"/>
<path style="fill:none;stroke-width:1.25;stroke-linecap:square;stroke-linejoin:miter;stroke:rgb(0%,0%,0%);stroke-opacity:1;stroke-miterlimit:3.25;" d="M 165.039063 77.542969 L 167.703125 84.199219 " transform="matrix(1,0,0,1,-83,-6)"/>
<path style="fill:none;stroke-width:1.25;stroke-linecap:square;stroke-linejoin:miter;stroke:rgb(0%,0%,0%);stroke-opacity:1;stroke-miterlimit:3.25;" d="M 165.039063 77.542969 L 164.226563 78.992188 L 163.484375 81.429688 L 162.835938 84.515625 L 162.3125 87.917969 L 161.9375 91.292969 L 161.722656 94.402344 L 161.640625 97.207031 L 161.664063 99.683594 L 161.757813 101.808594 L 161.898438 103.558594 L 162.117188 104.972656 L 162.492188 106.121094 L 163.117188 107.089844 L 164.074219 107.957031 L 165.4375 108.800781 L 167.15625 109.671875 L 169.121094 110.609375 L 171.207031 111.648438 L 173.308594 112.828125 L 175.328125 114.15625 L 177.261719 115.542969 L 179.128906 116.863281 L 180.949219 117.996094 L 182.742188 118.824219 L 184.519531 119.28125 L 186.296875 119.425781 L 188.078125 119.3125 L 189.875 119.015625 L 191.699219 118.597656 L 193.542969 118.09375 L 195.390625 117.515625 L 197.230469 116.871094 L 199.046875 116.171875 L 200.820313 115.425781 L 202.546875 114.632813 L 204.207031 113.800781 L 205.800781 112.917969 L 207.316406 111.996094 L 208.75 111.023438 L 210.121094 109.988281 L 211.460938 108.875 L 212.792969 107.660156 L 214.152344 106.324219 L 215.53125 104.878906 L 216.875 103.382813 L 218.128906 101.898438 L 219.21875 100.496094 L 220.097656 99.234375 L 220.746094 98.089844 L 221.210938 96.953125 L 221.539063 95.714844 L 221.773438 94.261719 L 221.945313 92.496094 L 221.9375 90.402344 L 221.5625 88.019531 L 220.636719 85.382813 L 218.96875 82.535156 " transform="matrix(1,0,0,1,-83,-6)"/>
<path style="fill:none;stroke-width:1.25;stroke-linecap:square;stroke-linejoin:miter;stroke:rgb(0%,0%,0%);stroke-opacity:1;stroke-miterlimit:3.25;" d="M 186.011719 77.542969 L 189.191406 74.78125 L 191.449219 74.667969 L 191.003906 78.542969 " transform="matrix(1,0,0,1,-83,-6)"/>
<path style="fill:none;stroke-width:1.25;stroke-linecap:square;stroke-linejoin:miter;stroke:rgb(0%,0%,0%);stroke-opacity:1;stroke-miterlimit:3.25;" d="M 186.011719 77.542969 L 191.003906 78.542969 " transform="matrix(1,0,0,1,-83,-6)"/>
<path style="fill:none;stroke-width:1.25;stroke-linecap:square;stroke-linejoin:miter;stroke:rgb(0%,0%,0%);stroke-opacity:1;stroke-miterlimit:3.25;" d="M 246.261719 78.875 L 245.355469 81.039063 L 243.953125 83.488281 L 242.242188 86.152344 L 240.410156 88.957031 L 238.636719 91.828125 L 237.070313 94.695313 L 235.707031 97.507813 L 234.503906 100.214844 L 233.414063 102.765625 L 232.394531 105.117188 L 231.40625 107.222656 L 230.445313 109.097656 L 229.503906 110.765625 L 228.582031 112.242188 L 227.675781 113.550781 L 226.789063 114.707031 L 225.921875 115.726563 L 225.089844 116.609375 L 224.300781 117.359375 L 223.570313 117.988281 L 222.871094 118.507813 L 222.015625 118.988281 L 220.785156 119.511719 L 218.964844 120.160156 L 216.332031 121.011719 L 212.796875 122.121094 L 208.796875 123.417969 L 204.898438 124.808594 L 201.664063 126.191406 L 199.660156 127.472656 " transform="matrix(1,0,0,1,-83,-6)"/>
<path style="fill:none;stroke-width:1.25;stroke-linecap:square;stroke-linejoin:miter;stroke:rgb(0%,0%,0%);stroke-opacity:1;stroke-miterlimit:3.25;" d="M 218.96875 82.535156 L 213.640625 87.195313 " transform="matrix(1,0,0,1,-83,-6)"/>
<path style="fill:none;stroke-width:1.25;stroke-linecap:square;stroke-linejoin:miter;stroke:rgb(0%,0%,0%);stroke-opacity:1;stroke-miterlimit:3.25;" d="M 168.703125 83.535156 L 179.023438 88.859375 " transform="matrix(1,0,0,1,-83,-6)"/>
<path style="fill:none;stroke-width:1.25;stroke-linecap:square;stroke-linejoin:miter;stroke:rgb(0%,0%,0%);stroke-opacity:1;stroke-miterlimit:3.25;" d="M 168.703125 83.535156 L 167.703125 84.199219 " transform="matrix(1,0,0,1,-83,-6)"/>
<path style="fill:none;stroke-width:1.25;stroke-linecap:square;stroke-linejoin:miter;stroke:rgb(0%,0%,0%);stroke-opacity:1;stroke-miterlimit:3.25;" d="M 167.703125 84.199219 L 167.9375 85.957031 L 168.628906 88.273438 L 169.742188 90.910156 L 171.253906 93.628906 L 173.140625 96.183594 L 175.351563 98.386719 L 177.765625 100.222656 L 180.230469 101.730469 L 182.605469 102.945313 L 184.734375 103.894531 L 186.523438 104.621094 L 188.007813 105.152344 L 189.285156 105.527344 L 190.441406 105.78125 L 191.558594 105.949219 L 192.714844 106.054688 L 193.890625 106.09375 L 195.0625 106.066406 L 196.199219 105.957031 L 197.273438 105.753906 L 198.359375 105.324219 L 199.945313 104.027344 L 202.625 101.085938 L 206.992188 95.734375 L 213.640625 87.195313 " transform="matrix(1,0,0,1,-83,-6)"/>
<path style="fill:none;stroke-width:1.25;stroke-linecap:square;stroke-linejoin:miter;stroke:rgb(0%,0%,0%);stroke-opacity:1;stroke-miterlimit:3.25;" d="M 179.023438 88.859375 L 180.019531 89.191406 " transform="matrix(1,0,0,1,-83,-6)"/>
<path style="fill:none;stroke-width:1.25;stroke-linecap:square;stroke-linejoin:miter;stroke:rgb(0%,0%,0%);stroke-opacity:1;stroke-miterlimit:3.25;" d="M 179.023438 88.859375 L 179.355469 90.191406 " transform="matrix(1,0,0,1,-83,-6)"/>
<path style="fill:none;stroke-width:1.25;stroke-linecap:square;stroke-linejoin:miter;stroke:rgb(0%,0%,0%);stroke-opacity:1;stroke-miterlimit:3.25;" d="M 180.019531 89.191406 L 179.355469 90.191406 " transform="matrix(1,0,0,1,-83,-6)"/>
<path style="fill:none;stroke-width:1.25;stroke-linecap:square;stroke-linejoin:miter;stroke:rgb(0%,0%,0%);stroke-opacity:1;stroke-miterlimit:3.25;" d="M 180.019531 89.191406 L 199.660156 89.191406 " transform="matrix(1,0,0,1,-83,-6)"/>
<path style="fill:none;stroke-width:1.25;stroke-linecap:square;stroke-linejoin:miter;stroke:rgb(0%,0%,0%);stroke-opacity:1;stroke-miterlimit:3.25;" d="M 179.355469 90.191406 L 191.003906 97.515625 " transform="matrix(1,0,0,1,-83,-6)"/>
<path style="fill:none;stroke-width:1.25;stroke-linecap:square;stroke-linejoin:miter;stroke:rgb(0%,0%,0%);stroke-opacity:1;stroke-miterlimit:3.25;" d="M 262.242188 90.191406 L 261.574219 92.1875 " transform="matrix(1,0,0,1,-83,-6)"/>
<path style="fill:none;stroke-width:1.25;stroke-linecap:square;stroke-linejoin:miter;stroke:rgb(0%,0%,0%);stroke-opacity:1;stroke-miterlimit:3.25;" d="M 262.242188 90.191406 L 263.242188 91.191406 " transform="matrix(1,0,0,1,-83,-6)"/>
<path style="fill:none;stroke-width:1.25;stroke-linecap:square;stroke-linejoin:miter;stroke:rgb(0%,0%,0%);stroke-opacity:1;stroke-miterlimit:3.25;" d="M 124.097656 90.523438 L 113.484375 96.683594 L 110.117188 100.84375 " transform="matrix(1,0,0,1,-83,-6)"/>
<path style="fill:none;stroke-width:1.25;stroke-linecap:square;stroke-linejoin:miter;stroke:rgb(0%,0%,0%);stroke-opacity:1;stroke-miterlimit:3.25;" d="M 263.242188 91.191406 L 270.710938 90.710938 L 278.550781 92.355469 L 286.894531 95.871094 L 299.855469 105.503906 " transform="matrix(1,0,0,1,-83,-6)"/>
<path style="fill:none;stroke-width:1.25;stroke-linecap:square;stroke-linejoin:miter;stroke:rgb(0%,0%,0%);stroke-opacity:1;stroke-miterlimit:3.25;" d="M 263.242188 91.191406 L 261.574219 92.1875 " transform="matrix(1,0,0,1,-83,-6)"/>
<path style="fill:none;stroke-width:1.25;stroke-linecap:square;stroke-linejoin:miter;stroke:rgb(0%,0%,0%);stroke-opacity:1;stroke-miterlimit:3.25;" d="M 261.574219 92.1875 L 260.578125 93.851563 " transform="matrix(1,0,0,1,-83,-6)"/>
<path style="fill:none;stroke-width:1.25;stroke-linecap:square;stroke-linejoin:miter;stroke:rgb(0%,0%,0%);stroke-opacity:1;stroke-miterlimit:3.25;" d="M 202.324219 93.519531 L 191.003906 97.515625 " transform="matrix(1,0,0,1,-83,-6)"/>
<path style="fill:none;stroke-width:1.25;stroke-linecap:square;stroke-linejoin:miter;stroke:rgb(0%,0%,0%);stroke-opacity:1;stroke-miterlimit:3.25;" d="M 202.324219 94.1875 L 202.324219 93.519531 " transform="matrix(1,0,0,1,-83,-6)"/>
<path style="fill:none;stroke-width:1.25;stroke-linecap:square;stroke-linejoin:miter;stroke:rgb(0%,0%,0%);stroke-opacity:1;stroke-miterlimit:3.25;" d="M 260.578125 93.851563 L 259.15625 96.65625 L 258.179688 99.320313 L 257.433594 101.785156 L 256.671875 104.011719 L 254.753906 106.359375 L 249.644531 109.59375 L 239.273438 114.492188 " transform="matrix(1,0,0,1,-83,-6)"/>
<path style="fill:none;stroke-width:1.25;stroke-linecap:square;stroke-linejoin:miter;stroke:rgb(0%,0%,0%);stroke-opacity:1;stroke-miterlimit:3.25;" d="M 260.578125 93.851563 L 262.242188 106.171875 " transform="matrix(1,0,0,1,-83,-6)"/>
<path style="fill:none;stroke-width:1.25;stroke-linecap:square;stroke-linejoin:miter;stroke:rgb(0%,0%,0%);stroke-opacity:1;stroke-miterlimit:3.25;" d="M 137.410156 94.1875 L 133.085938 98.179688 " transform="matrix(1,0,0,1,-83,-6)"/>
<path style="fill:none;stroke-width:1.25;stroke-linecap:square;stroke-linejoin:miter;stroke:rgb(0%,0%,0%);stroke-opacity:1;stroke-miterlimit:3.25;" d="M 191.003906 98.179688 L 191.003906 97.515625 " transform="matrix(1,0,0,1,-83,-6)"/>
<path style="fill:none;stroke-width:1.25;stroke-linecap:square;stroke-linejoin:miter;stroke:rgb(0%,0%,0%);stroke-opacity:1;stroke-miterlimit:3.25;" d="M 133.085938 98.179688 L 133.085938 125.476563 " transform="matrix(1,0,0,1,-83,-6)"/>
<path style="fill:none;stroke-width:1.25;stroke-linecap:square;stroke-linejoin:miter;stroke:rgb(0%,0%,0%);stroke-opacity:1;stroke-miterlimit:3.25;" d="M 265.902344 99.179688 L 273.226563 102.839844 " transform="matrix(1,0,0,1,-83,-6)"/>
<path style="fill:none;stroke-width:1.25;stroke-linecap:square;stroke-linejoin:miter;stroke:rgb(0%,0%,0%);stroke-opacity:1;stroke-miterlimit:3.25;" d="M 277.222656 100.511719 L 279.21875 101.84375 " transform="matrix(1,0,0,1,-83,-6)"/>
<path style="fill:none;stroke-width:1.25;stroke-linecap:square;stroke-linejoin:miter;stroke:rgb(0%,0%,0%);stroke-opacity:1;stroke-miterlimit:3.25;" d="M 110.117188 100.84375 L 104.886719 103.320313 L 102.023438 105.351563 L 100.0625 107.539063 L 98.105469 110.210938 L 96.316406 113.132813 L 94.984375 116.035156 L 94.039063 118.789063 L 93.074219 121.441406 L 91.746094 124.011719 L 90.414063 126.335938 L 89.808594 128.140625 " transform="matrix(1,0,0,1,-83,-6)"/>
<path style="fill:none;stroke-width:1.25;stroke-linecap:square;stroke-linejoin:miter;stroke:rgb(0%,0%,0%);stroke-opacity:1;stroke-miterlimit:3.25;" d="M 110.117188 100.84375 L 111.78125 101.175781 " transform="matrix(1,0,0,1,-83,-6)"/>
<path style="fill:none;stroke-width:1.25;stroke-linecap:square;stroke-linejoin:miter;stroke:rgb(0%,0%,0%);stroke-opacity:1;stroke-miterlimit:3.25;" d="M 279.21875 101.84375 L 283.546875 103.839844 " transform="matrix(1,0,0,1,-83,-6)"/>
<path style="fill:none;stroke-width:1.25;stroke-linecap:square;stroke-linejoin:miter;stroke:rgb(0%,0%,0%);stroke-opacity:1;stroke-miterlimit:3.25;" d="M 279.21875 101.84375 L 273.558594 102.839844 " transform="matrix(1,0,0,1,-83,-6)"/>
<path style="fill:none;stroke-width:1.25;stroke-linecap:square;stroke-linejoin:miter;stroke:rgb(0%,0%,0%);stroke-opacity:1;stroke-miterlimit:3.25;" d="M 273.226563 102.839844 L 262.242188 106.171875 " transform="matrix(1,0,0,1,-83,-6)"/>
<path style="fill:none;stroke-width:1.25;stroke-linecap:square;stroke-linejoin:miter;stroke:rgb(0%,0%,0%);stroke-opacity:1;stroke-miterlimit:3.25;" d="M 273.558594 102.839844 L 263.90625 115.15625 " transform="matrix(1,0,0,1,-83,-6)"/>
<path style="fill:none;stroke-width:1.25;stroke-linecap:square;stroke-linejoin:miter;stroke:rgb(0%,0%,0%);stroke-opacity:1;stroke-miterlimit:3.25;" d="M 283.546875 103.839844 L 285.542969 103.839844 " transform="matrix(1,0,0,1,-83,-6)"/>
<path style="fill:none;stroke-width:1.25;stroke-linecap:square;stroke-linejoin:miter;stroke:rgb(0%,0%,0%);stroke-opacity:1;stroke-miterlimit:3.25;" d="M 283.546875 103.839844 L 273.890625 112.496094 " transform="matrix(1,0,0,1,-83,-6)"/>
<path style="fill:none;stroke-width:1.25;stroke-linecap:square;stroke-linejoin:miter;stroke:rgb(0%,0%,0%);stroke-opacity:1;stroke-miterlimit:3.25;" d="M 116.109375 104.503906 L 122.765625 108.167969 " transform="matrix(1,0,0,1,-83,-6)"/>
<path style="fill:none;stroke-width:1.25;stroke-linecap:square;stroke-linejoin:miter;stroke:rgb(0%,0%,0%);stroke-opacity:1;stroke-miterlimit:3.25;" d="M 299.855469 105.503906 L 302.519531 105.503906 " transform="matrix(1,0,0,1,-83,-6)"/>
<path style="fill:none;stroke-width:1.25;stroke-linecap:square;stroke-linejoin:miter;stroke:rgb(0%,0%,0%);stroke-opacity:1;stroke-miterlimit:3.25;" d="M 299.855469 105.503906 L 292.378906 110.449219 L 287.003906 114.605469 L 283.097656 117.867188 L 280.054688 120.160156 L 277.425781 121.648438 L 274.835938 122.621094 L 271.9375 123.335938 L 268.800781 123.875 L 265.832031 124.171875 L 263.417969 124.152344 L 261.632813 123.855469 L 260.105469 123.445313 L 258.4375 123.085938 L 256.375 122.789063 L 253.953125 122.175781 L 251.257813 120.816406 " transform="matrix(1,0,0,1,-83,-6)"/>
<path style="fill:none;stroke-width:1.25;stroke-linecap:square;stroke-linejoin:miter;stroke:rgb(0%,0%,0%);stroke-opacity:1;stroke-miterlimit:3.25;" d="M 262.242188 106.171875 L 251.257813 120.816406 " transform="matrix(1,0,0,1,-83,-6)"/>
<path style="fill:none;stroke-width:1.25;stroke-linecap:square;stroke-linejoin:miter;stroke:rgb(0%,0%,0%);stroke-opacity:1;stroke-miterlimit:3.25;" d="M 121.765625 109.164063 L 122.765625 108.167969 " transform="matrix(1,0,0,1,-83,-6)"/>
<path style="fill:none;stroke-width:1.25;stroke-linecap:square;stroke-linejoin:miter;stroke:rgb(0%,0%,0%);stroke-opacity:1;stroke-miterlimit:3.25;" d="M 121.765625 109.164063 L 111.113281 113.492188 " transform="matrix(1,0,0,1,-83,-6)"/>
<path style="fill:none;stroke-width:1.25;stroke-linecap:square;stroke-linejoin:miter;stroke:rgb(0%,0%,0%);stroke-opacity:1;stroke-miterlimit:3.25;" d="M 121.765625 109.164063 L 118.4375 117.488281 " transform="matrix(1,0,0,1,-83,-6)"/>
<path style="fill:none;stroke-width:1.25;stroke-linecap:square;stroke-linejoin:miter;stroke:rgb(0%,0%,0%);stroke-opacity:1;stroke-miterlimit:3.25;" d="M 103.125 113.160156 L 110.449219 113.492188 " transform="matrix(1,0,0,1,-83,-6)"/>
<path style="fill:none;stroke-width:1.25;stroke-linecap:square;stroke-linejoin:miter;stroke:rgb(0%,0%,0%);stroke-opacity:1;stroke-miterlimit:3.25;" d="M 110.449219 113.492188 L 111.113281 113.492188 " transform="matrix(1,0,0,1,-83,-6)"/>
<path style="fill:none;stroke-width:1.25;stroke-linecap:square;stroke-linejoin:miter;stroke:rgb(0%,0%,0%);stroke-opacity:1;stroke-miterlimit:3.25;" d="M 110.449219 113.492188 L 101.210938 120.402344 L 96.136719 125.144531 " transform="matrix(1,0,0,1,-83,-6)"/>
<path style="fill:none;stroke-width:1.25;stroke-linecap:square;stroke-linejoin:miter;stroke:rgb(0%,0%,0%);stroke-opacity:1;stroke-miterlimit:3.25;" d="M 111.113281 113.492188 L 108.453125 121.484375 " transform="matrix(1,0,0,1,-83,-6)"/>
<path style="fill:none;stroke-width:1.25;stroke-linecap:square;stroke-linejoin:miter;stroke:rgb(0%,0%,0%);stroke-opacity:1;stroke-miterlimit:3.25;" d="M 239.273438 114.492188 L 236.847656 118.617188 L 234.960938 121.28125 L 233.480469 122.894531 L 232.253906 123.867188 L 231.097656 124.5625 L 229.621094 125.132813 L 227.394531 125.691406 L 223.988281 126.335938 L 219.121094 127.113281 L 213.125 127.769531 L 206.476563 127.996094 L 199.660156 127.472656 " transform="matrix(1,0,0,1,-83,-6)"/>
<path style="fill:none;stroke-width:1.25;stroke-linecap:square;stroke-linejoin:miter;stroke:rgb(0%,0%,0%);stroke-opacity:1;stroke-miterlimit:3.25;" d="M 251.257813 120.816406 L 237.109375 136.128906 L 227.953125 148.113281 " transform="matrix(1,0,0,1,-83,-6)"/>
<path style="fill:none;stroke-width:1.25;stroke-linecap:square;stroke-linejoin:miter;stroke:rgb(0%,0%,0%);stroke-opacity:1;stroke-miterlimit:3.25;" d="M 144.070313 122.148438 L 153.390625 131.136719 " transform="matrix(1,0,0,1,-83,-6)"/>
<path style="fill:none;stroke-width:1.25;stroke-linecap:square;stroke-linejoin:miter;stroke:rgb(0%,0%,0%);stroke-opacity:1;stroke-miterlimit:3.25;" d="M 133.085938 125.476563 L 128.417969 128.480469 L 123.9375 130.410156 L 118.9375 131.636719 L 112.976563 132.394531 L 106.644531 132.375 L 100.796875 131.136719 " transform="matrix(1,0,0,1,-83,-6)"/>
<path style="fill:none;stroke-width:1.25;stroke-linecap:square;stroke-linejoin:miter;stroke:rgb(0%,0%,0%);stroke-opacity:1;stroke-miterlimit:3.25;" d="M 133.085938 125.476563 L 136.617188 127.605469 L 141.144531 131.082031 L 146.097656 134.980469 L 150.953125 138.386719 L 155.824219 140.910156 L 161.476563 142.660156 L 168.703125 143.785156 " transform="matrix(1,0,0,1,-83,-6)"/>
<path style="fill:none;stroke-width:1.25;stroke-linecap:square;stroke-linejoin:miter;stroke:rgb(0%,0%,0%);stroke-opacity:1;stroke-miterlimit:3.25;" d="M 199.328125 127.808594 L 192.667969 133.464844 " transform="matrix(1,0,0,1,-83,-6)"/>
<path style="fill:none;stroke-width:1.25;stroke-linecap:square;stroke-linejoin:miter;stroke:rgb(0%,0%,0%);stroke-opacity:1;stroke-miterlimit:3.25;" d="M 199.328125 127.808594 L 193.335938 134.132813 " transform="matrix(1,0,0,1,-83,-6)"/>
<path style="fill:none;stroke-width:1.25;stroke-linecap:square;stroke-linejoin:miter;stroke:rgb(0%,0%,0%);stroke-opacity:1;stroke-miterlimit:3.25;" d="M 89.808594 128.140625 L 100.796875 131.136719 " transform="matrix(1,0,0,1,-83,-6)"/>
<path style="fill:none;stroke-width:1.25;stroke-linecap:square;stroke-linejoin:miter;stroke:rgb(0%,0%,0%);stroke-opacity:1;stroke-miterlimit:3.25;" d="M 89.808594 128.140625 L 87.480469 130.136719 " transform="matrix(1,0,0,1,-83,-6)"/>
<path style="fill:none;stroke-width:1.25;stroke-linecap:square;stroke-linejoin:miter;stroke:rgb(0%,0%,0%);stroke-opacity:1;stroke-miterlimit:3.25;" d="M 100.796875 131.136719 L 100.796875 130.136719 " transform="matrix(1,0,0,1,-83,-6)"/>
<path style="fill:none;stroke-width:1.25;stroke-linecap:square;stroke-linejoin:miter;stroke:rgb(0%,0%,0%);stroke-opacity:1;stroke-miterlimit:3.25;" d="M 153.390625 131.136719 L 155.054688 132.46875 " transform="matrix(1,0,0,1,-83,-6)"/>
<path style="fill:none;stroke-width:1.25;stroke-linecap:square;stroke-linejoin:miter;stroke:rgb(0%,0%,0%);stroke-opacity:1;stroke-miterlimit:3.25;" d="M 153.390625 131.136719 L 152.722656 132.132813 " transform="matrix(1,0,0,1,-83,-6)"/>
<path style="fill:none;stroke-width:1.25;stroke-linecap:square;stroke-linejoin:miter;stroke:rgb(0%,0%,0%);stroke-opacity:1;stroke-miterlimit:3.25;" d="M 152.722656 132.132813 L 154.390625 133.132813 " transform="matrix(1,0,0,1,-83,-6)"/>
<path style="fill:none;stroke-width:1.25;stroke-linecap:square;stroke-linejoin:miter;stroke:rgb(0%,0%,0%);stroke-opacity:1;stroke-miterlimit:3.25;" d="M 155.054688 132.46875 L 156.054688 133.464844 " transform="matrix(1,0,0,1,-83,-6)"/>
<path style="fill:none;stroke-width:1.25;stroke-linecap:square;stroke-linejoin:miter;stroke:rgb(0%,0%,0%);stroke-opacity:1;stroke-miterlimit:3.25;" d="M 154.390625 133.132813 L 155.054688 132.46875 " transform="matrix(1,0,0,1,-83,-6)"/>
<path style="fill:none;stroke-width:1.25;stroke-linecap:square;stroke-linejoin:miter;stroke:rgb(0%,0%,0%);stroke-opacity:1;stroke-miterlimit:3.25;" d="M 154.390625 133.132813 L 156.054688 133.464844 " transform="matrix(1,0,0,1,-83,-6)"/>
<path style="fill:none;stroke-width:1.25;stroke-linecap:square;stroke-linejoin:miter;stroke:rgb(0%,0%,0%);stroke-opacity:1;stroke-miterlimit:3.25;" d="M 156.054688 133.464844 L 180.019531 139.457031 " transform="matrix(1,0,0,1,-83,-6)"/>
<path style="fill:none;stroke-width:1.25;stroke-linecap:square;stroke-linejoin:miter;stroke:rgb(0%,0%,0%);stroke-opacity:1;stroke-miterlimit:3.25;" d="M 192.667969 133.464844 L 191.003906 134.464844 " transform="matrix(1,0,0,1,-83,-6)"/>
<path style="fill:none;stroke-width:1.25;stroke-linecap:square;stroke-linejoin:miter;stroke:rgb(0%,0%,0%);stroke-opacity:1;stroke-miterlimit:3.25;" d="M 192.667969 133.464844 L 193.335938 134.132813 " transform="matrix(1,0,0,1,-83,-6)"/>
<path style="fill:none;stroke-width:1.25;stroke-linecap:square;stroke-linejoin:miter;stroke:rgb(0%,0%,0%);stroke-opacity:1;stroke-miterlimit:3.25;" d="M 193.335938 134.132813 L 191.671875 135.128906 " transform="matrix(1,0,0,1,-83,-6)"/>
<path style="fill:none;stroke-width:1.25;stroke-linecap:square;stroke-linejoin:miter;stroke:rgb(0%,0%,0%);stroke-opacity:1;stroke-miterlimit:3.25;" d="M 191.003906 134.464844 L 191.671875 135.128906 " transform="matrix(1,0,0,1,-83,-6)"/>
<path style="fill:none;stroke-width:1.25;stroke-linecap:square;stroke-linejoin:miter;stroke:rgb(0%,0%,0%);stroke-opacity:1;stroke-miterlimit:3.25;" d="M 191.671875 135.128906 L 180.019531 139.457031 " transform="matrix(1,0,0,1,-83,-6)"/>
<path style="fill:none;stroke-width:1.25;stroke-linecap:square;stroke-linejoin:miter;stroke:rgb(0%,0%,0%);stroke-opacity:1;stroke-miterlimit:3.25;" d="M 180.019531 139.457031 L 201.992188 146.449219 " transform="matrix(1,0,0,1,-83,-6)"/>
<path style="fill:none;stroke-width:1.25;stroke-linecap:square;stroke-linejoin:miter;stroke:rgb(0%,0%,0%);stroke-opacity:1;stroke-miterlimit:3.25;" d="M 172.363281 143.121094 L 168.703125 143.785156 " transform="matrix(1,0,0,1,-83,-6)"/>
<path style="fill:none;stroke-width:1.25;stroke-linecap:square;stroke-linejoin:miter;stroke:rgb(0%,0%,0%);stroke-opacity:1;stroke-miterlimit:3.25;" d="M 168.703125 143.785156 L 167.339844 150.414063 L 167.125 156.65625 L 167.871094 162.011719 L 169.402344 166.125 L 171.582031 169.242188 L 174.277344 171.746094 L 177.394531 174.125 L 180.953125 177.246094 L 185.011719 182.066406 " transform="matrix(1,0,0,1,-83,-6)"/>
<path style="fill:none;stroke-width:1.25;stroke-linecap:square;stroke-linejoin:miter;stroke:rgb(0%,0%,0%);stroke-opacity:1;stroke-miterlimit:3.25;" d="M 201.992188 146.449219 L 217.136719 146.699219 L 227.953125 148.113281 " transform="matrix(1,0,0,1,-83,-6)"/>
<path style="fill:none;stroke-width:1.25;stroke-linecap:square;stroke-linejoin:miter;stroke:rgb(0%,0%,0%);stroke-opacity:1;stroke-miterlimit:3.25;" d="M 201.992188 146.449219 L 200.585938 162.796875 L 196.257813 171.511719 L 185.011719 182.066406 " transform="matrix(1,0,0,1,-83,-6)"/>
<path style="fill:none;stroke-width:1.25;stroke-linecap:square;stroke-linejoin:miter;stroke:rgb(0%,0%,0%);stroke-opacity:1;stroke-miterlimit:3.25;" d="M 181.351563 148.113281 L 185.679688 157.433594 " transform="matrix(1,0,0,1,-83,-6)"/>
<path style="fill:none;stroke-width:1.25;stroke-linecap:square;stroke-linejoin:miter;stroke:rgb(0%,0%,0%);stroke-opacity:1;stroke-miterlimit:3.25;" d="M 227.953125 149.113281 L 227.953125 148.113281 " transform="matrix(1,0,0,1,-83,-6)"/>
<path style="fill:none;stroke-width:1.25;stroke-linecap:square;stroke-linejoin:miter;stroke:rgb(0%,0%,0%);stroke-opacity:1;stroke-miterlimit:3.25;" d="M 177.023438 152.441406 L 185.679688 157.433594 " transform="matrix(1,0,0,1,-83,-6)"/>
<path style="fill:none;stroke-width:1.25;stroke-linecap:square;stroke-linejoin:miter;stroke:rgb(0%,0%,0%);stroke-opacity:1;stroke-miterlimit:3.25;" d="M 185.679688 157.433594 L 187.011719 167.085938 " transform="matrix(1,0,0,1,-83,-6)"/>
<path style="fill:none;stroke-width:1.25;stroke-linecap:square;stroke-linejoin:miter;stroke:rgb(0%,0%,0%);stroke-opacity:1;stroke-miterlimit:3.25;" d="M 174.363281 163.09375 L 187.011719 167.085938 " transform="matrix(1,0,0,1,-83,-6)"/>
<path style="fill:none;stroke-width:1.25;stroke-linecap:square;stroke-linejoin:miter;stroke:rgb(0%,0%,0%);stroke-opacity:1;stroke-miterlimit:3.25;" d="M 190.671875 166.421875 L 188.34375 169.085938 " transform="matrix(1,0,0,1,-83,-6)"/>
<path style="fill:none;stroke-width:1.25;stroke-linecap:square;stroke-linejoin:miter;stroke:rgb(0%,0%,0%);stroke-opacity:1;stroke-miterlimit:3.25;" d="M 187.011719 167.085938 L 188.34375 169.085938 " transform="matrix(1,0,0,1,-83,-6)"/>
<path style="fill:none;stroke-width:1.25;stroke-linecap:square;stroke-linejoin:miter;stroke:rgb(0%,0%,0%);stroke-opacity:1;stroke-miterlimit:3.25;" d="M 188.34375 169.085938 L 188.007813 171.082031 " transform="matrix(1,0,0,1,-83,-6)"/>
<path style="fill:none;stroke-width:1.25;stroke-linecap:square;stroke-linejoin:miter;stroke:rgb(0%,0%,0%);stroke-opacity:1;stroke-miterlimit:3.25;" d="M 185.011719 182.066406 L 184.679688 184.0625 " transform="matrix(1,0,0,1,-83,-6)"/>
</g>
</svg>
