<?xml version="1.0" encoding="UTF-8"?>
<svg xmlns="http://www.w3.org/2000/svg" xmlns:xlink="http://www.w3.org/1999/xlink" width="181pt" height="267pt" viewBox="0 0 181 267" version="1.1">
<g id="surface14">
<path style="fill:none;stroke-width:1.25;stroke-linecap:square;stroke-linejoin:miter;stroke:rgb(0%,0%,0%);stroke-opacity:1;stroke-miterlimit:3.25;" d="M 125.019531 11.941406 L 125.820313 11.140625 " transform="matrix(1,0,0,1,-83,-6)"/>
<path style="fill:none;stroke-width:1.25;stroke-linecap:square;stroke-linejoin:miter;stroke:rgb(0%,0%,0%);stroke-opacity:1;stroke-miterlimit:3.25;" d="M 180.917969 18.328125 L 181.714844 19.128906 " transform="matrix(1,0,0,1,-83,-6)"/>
<path style="fill:none;stroke-width:1.25;stroke-linecap:square;stroke-linejoin:miter;stroke:rgb(0%,0%,0%);stroke-opacity:1;stroke-miterlimit:3.25;" d="M 181.714844 19.128906 L 182.511719 18.328125 " transform="matrix(1,0,0,1,-83,-6)"/>
<path style="fill:none;stroke-width:1.25;stroke-linecap:square;stroke-linejoin:miter;stroke:rgb(0%,0%,0%);stroke-opacity:1;stroke-miterlimit:3.25;" d="M 249.585938 118.941406 L 250.386719 119.738281 " transform="matrix(1,0,0,1,-83,-6)"/>
<path style="fill:none;stroke-width:1.25;stroke-linecap:square;stroke-linejoin:miter;stroke:rgb(0%,0%,0%);stroke-opacity:1;stroke-miterlimit:3.25;" d="M 224.835938 179.625 L 225.632813 180.425781 " transform="matrix(1,0,0,1,-83,-6)"/>
<path style="fill:none;stroke-width:1.25;stroke-linecap:square;stroke-linejoin:miter;stroke:rgb(0%,0%,0%);stroke-opacity:1;stroke-miterlimit:3.25;" d="M 229.625 193.203125 L 230.421875 192.402344 " transform="matrix(1,0,0,1,-83,-6)"/>
<path style="fill:none;stroke-width:1.25;stroke-linecap:square;stroke-linejoin:miter;stroke:rgb(0%,0%,0%);stroke-opacity:1;stroke-miterlimit:3.25;" d="M 223.238281 234.722656 L 224.035156 234.722656 " transform="matrix(1,0,0,1,-83,-6)"/>
<path style="fill:none;stroke-width:1.25;stroke-linecap:square;stroke-linejoin:miter;stroke:rgb(0%,0%,0%);stroke-opacity:1;stroke-miterlimit:3.25;" d="M 231.222656 235.523438 L 232.019531 235.523438 " transform="matrix(1,0,0,1,-83,-6)"/>
<path style="fill:none;stroke-width:1.25;stroke-linecap:square;stroke-linejoin:miter;stroke:rgb(0%,0%,0%);stroke-opacity:1;stroke-miterlimit:3.25;" d="M 258.371094 236.320313 L 259.171875 236.320313 " transform="matrix(1,0,0,1,-83,-6)"/>
<path style="fill:none;stroke-width:1.25;stroke-linecap:square;stroke-linejoin:miter;stroke:rgb(0%,0%,0%);stroke-opacity:1;stroke-miterlimit:3.25;" d="M 122.625 9.546875 L 125.820313 11.140625 " transform="matrix(1,0,0,1,-83,-6)"/>
<path style="fill:none;stroke-width:1.25;stroke-linecap:square;stroke-linejoin:miter;stroke:rgb(0%,0%,0%);stroke-opacity:1;stroke-miterlimit:3.25;" d="M 122.625 9.546875 L 109.851563 13.539063 " transform="matrix(1,0,0,1,-83,-6)"/>
<path style="fill:none;stroke-width:1.25;stroke-linecap:square;stroke-linejoin:miter;stroke:rgb(0%,0%,0%);stroke-opacity:1;stroke-miterlimit:3.25;" d="M 122.625 9.546875 L 125.019531 11.941406 " transform="matrix(1,0,0,1,-83,-6)"/>
<path style="fill:none;stroke-width:1.25;stroke-linecap:square;stroke-linejoin:miter;stroke:rgb(0%,0%,0%);stroke-opacity:1;stroke-miterlimit:3.25;" d="M 125.820313 11.140625 L 129.433594 12.746094 L 133.035156 15.066406 L 136.542969 17.953125 L 139.878906 21.257813 L 142.960938 24.824219 L 145.714844 28.511719 L 148.089844 32.15625 L 150.140625 35.578125 L 151.972656 38.589844 L 153.667969 41.003906 L 155.320313 42.632813 L 157.027344 43.28125 L 158.859375 42.773438 L 160.824219 40.953125 L 162.910156 37.667969 L 165.097656 32.769531 L 167.378906 26.105469 L 169.738281 17.53125 " transform="matrix(1,0,0,1,-83,-6)"/>
<path style="fill:none;stroke-width:1.25;stroke-linecap:square;stroke-linejoin:miter;stroke:rgb(0%,0%,0%);stroke-opacity:1;stroke-miterlimit:3.25;" d="M 125.019531 11.941406 L 111.445313 17.53125 " transform="matrix(1,0,0,1,-83,-6)"/>
<path style="fill:none;stroke-width:1.25;stroke-linecap:square;stroke-linejoin:miter;stroke:rgb(0%,0%,0%);stroke-opacity:1;stroke-miterlimit:3.25;" d="M 109.851563 13.539063 L 109.851563 16.730469 " transform="matrix(1,0,0,1,-83,-6)"/>
<path style="fill:none;stroke-width:1.25;stroke-linecap:square;stroke-linejoin:miter;stroke:rgb(0%,0%,0%);stroke-opacity:1;stroke-miterlimit:3.25;" d="M 109.851563 13.539063 L 109.851563 16.730469 " transform="matrix(1,0,0,1,-83,-6)"/>
<path style="fill:none;stroke-width:1.25;stroke-linecap:square;stroke-linejoin:miter;stroke:rgb(0%,0%,0%);stroke-opacity:1;stroke-miterlimit:3.25;" d="M 199.28125 14.335938 L 204.871094 14.335938 " transform="matrix(1,0,0,1,-83,-6)"/>
<path style="fill:none;stroke-width:1.25;stroke-linecap:square;stroke-linejoin:miter;stroke:rgb(0%,0%,0%);stroke-opacity:1;stroke-miterlimit:3.25;" d="M 196.886719 16.730469 L 199.28125 14.335938 " transform="matrix(1,0,0,1,-83,-6)"/>
<path style="fill:none;stroke-width:1.25;stroke-linecap:square;stroke-linejoin:miter;stroke:rgb(0%,0%,0%);stroke-opacity:1;stroke-miterlimit:3.25;" d="M 199.28125 14.335938 L 204.871094 14.335938 " transform="matrix(1,0,0,1,-83,-6)"/>
<path style="fill:none;stroke-width:1.25;stroke-linecap:square;stroke-linejoin:miter;stroke:rgb(0%,0%,0%);stroke-opacity:1;stroke-miterlimit:3.25;" d="M 204.871094 14.335938 L 208.066406 16.730469 " transform="matrix(1,0,0,1,-83,-6)"/>
<path style="fill:none;stroke-width:1.25;stroke-linecap:square;stroke-linejoin:miter;stroke:rgb(0%,0%,0%);stroke-opacity:1;stroke-miterlimit:3.25;" d="M 109.851563 16.730469 L 111.445313 17.53125 " transform="matrix(1,0,0,1,-83,-6)"/>
<path style="fill:none;stroke-width:1.25;stroke-linecap:square;stroke-linejoin:miter;stroke:rgb(0%,0%,0%);stroke-opacity:1;stroke-miterlimit:3.25;" d="M 196.886719 16.730469 L 189.699219 19.925781 " transform="matrix(1,0,0,1,-83,-6)"/>
<path style="fill:none;stroke-width:1.25;stroke-linecap:square;stroke-linejoin:miter;stroke:rgb(0%,0%,0%);stroke-opacity:1;stroke-miterlimit:3.25;" d="M 196.886719 20.722656 L 196.886719 16.730469 " transform="matrix(1,0,0,1,-83,-6)"/>
<path style="fill:none;stroke-width:1.25;stroke-linecap:square;stroke-linejoin:miter;stroke:rgb(0%,0%,0%);stroke-opacity:1;stroke-miterlimit:3.25;" d="M 206.46875 16.730469 L 208.066406 16.730469 " transform="matrix(1,0,0,1,-83,-6)"/>
<path style="fill:none;stroke-width:1.25;stroke-linecap:square;stroke-linejoin:miter;stroke:rgb(0%,0%,0%);stroke-opacity:1;stroke-miterlimit:3.25;" d="M 208.066406 16.730469 L 209.664063 19.128906 " transform="matrix(1,0,0,1,-83,-6)"/>
<path style="fill:none;stroke-width:1.25;stroke-linecap:square;stroke-linejoin:miter;stroke:rgb(0%,0%,0%);stroke-opacity:1;stroke-miterlimit:3.25;" d="M 111.445313 17.53125 L 119.203125 28.308594 L 123.59375 35.347656 L 125.722656 39.890625 L 126.664063 43.183594 L 127.015625 46.140625 L 126.597656 49.175781 L 125.167969 52.667969 L 122.527344 57.015625 L 119.027344 62.984375 L 115.363281 71.582031 L 112.246094 83.804688 " transform="matrix(1,0,0,1,-83,-6)"/>
<path style="fill:none;stroke-width:1.25;stroke-linecap:square;stroke-linejoin:miter;stroke:rgb(0%,0%,0%);stroke-opacity:1;stroke-miterlimit:3.25;" d="M 169.738281 17.53125 L 175.5625 14.335938 L 182.808594 14.335938 L 188.101563 17.53125 " transform="matrix(1,0,0,1,-83,-6)"/>
<path style="fill:none;stroke-width:1.25;stroke-linecap:square;stroke-linejoin:miter;stroke:rgb(0%,0%,0%);stroke-opacity:1;stroke-miterlimit:3.25;" d="M 169.738281 17.53125 L 180.917969 18.328125 " transform="matrix(1,0,0,1,-83,-6)"/>
<path style="fill:none;stroke-width:1.25;stroke-linecap:square;stroke-linejoin:miter;stroke:rgb(0%,0%,0%);stroke-opacity:1;stroke-miterlimit:3.25;" d="M 188.101563 17.53125 L 182.511719 18.328125 " transform="matrix(1,0,0,1,-83,-6)"/>
<path style="fill:none;stroke-width:1.25;stroke-linecap:square;stroke-linejoin:miter;stroke:rgb(0%,0%,0%);stroke-opacity:1;stroke-miterlimit:3.25;" d="M 188.101563 17.53125 L 189.699219 19.925781 " transform="matrix(1,0,0,1,-83,-6)"/>
<path style="fill:none;stroke-width:1.25;stroke-linecap:square;stroke-linejoin:miter;stroke:rgb(0%,0%,0%);stroke-opacity:1;stroke-miterlimit:3.25;" d="M 200.082031 17.53125 L 204.871094 25.515625 " transform="matrix(1,0,0,1,-83,-6)"/>
<path style="fill:none;stroke-width:1.25;stroke-linecap:square;stroke-linejoin:miter;stroke:rgb(0%,0%,0%);stroke-opacity:1;stroke-miterlimit:3.25;" d="M 180.917969 18.328125 L 182.511719 18.328125 " transform="matrix(1,0,0,1,-83,-6)"/>
<path style="fill:none;stroke-width:1.25;stroke-linecap:square;stroke-linejoin:miter;stroke:rgb(0%,0%,0%);stroke-opacity:1;stroke-miterlimit:3.25;" d="M 181.714844 19.128906 L 187.304688 22.320313 " transform="matrix(1,0,0,1,-83,-6)"/>
<path style="fill:none;stroke-width:1.25;stroke-linecap:square;stroke-linejoin:miter;stroke:rgb(0%,0%,0%);stroke-opacity:1;stroke-miterlimit:3.25;" d="M 209.664063 19.128906 L 210.5625 23.417969 L 204.871094 29.507813 " transform="matrix(1,0,0,1,-83,-6)"/>
<path style="fill:none;stroke-width:1.25;stroke-linecap:square;stroke-linejoin:miter;stroke:rgb(0%,0%,0%);stroke-opacity:1;stroke-miterlimit:3.25;" d="M 209.664063 19.128906 L 206.46875 25.515625 " transform="matrix(1,0,0,1,-83,-6)"/>
<path style="fill:none;stroke-width:1.25;stroke-linecap:square;stroke-linejoin:miter;stroke:rgb(0%,0%,0%);stroke-opacity:1;stroke-miterlimit:3.25;" d="M 187.304688 22.320313 L 189.699219 19.925781 " transform="matrix(1,0,0,1,-83,-6)"/>
<path style="fill:none;stroke-width:1.25;stroke-linecap:square;stroke-linejoin:miter;stroke:rgb(0%,0%,0%);stroke-opacity:1;stroke-miterlimit:3.25;" d="M 187.304688 22.320313 L 182.511719 51.066406 " transform="matrix(1,0,0,1,-83,-6)"/>
<path style="fill:none;stroke-width:1.25;stroke-linecap:square;stroke-linejoin:miter;stroke:rgb(0%,0%,0%);stroke-opacity:1;stroke-miterlimit:3.25;" d="M 198.484375 22.320313 L 204.871094 29.507813 " transform="matrix(1,0,0,1,-83,-6)"/>
<path style="fill:none;stroke-width:1.25;stroke-linecap:square;stroke-linejoin:miter;stroke:rgb(0%,0%,0%);stroke-opacity:1;stroke-miterlimit:3.25;" d="M 204.871094 29.507813 L 200.878906 44.679688 " transform="matrix(1,0,0,1,-83,-6)"/>
<path style="fill:none;stroke-width:1.25;stroke-linecap:square;stroke-linejoin:miter;stroke:rgb(0%,0%,0%);stroke-opacity:1;stroke-miterlimit:3.25;" d="M 200.878906 44.679688 L 217.746094 56.359375 L 225.632813 68.632813 " transform="matrix(1,0,0,1,-83,-6)"/>
<path style="fill:none;stroke-width:1.25;stroke-linecap:square;stroke-linejoin:miter;stroke:rgb(0%,0%,0%);stroke-opacity:1;stroke-miterlimit:3.25;" d="M 200.878906 44.679688 L 209.664063 56.65625 " transform="matrix(1,0,0,1,-83,-6)"/>
<path style="fill:none;stroke-width:1.25;stroke-linecap:square;stroke-linejoin:miter;stroke:rgb(0%,0%,0%);stroke-opacity:1;stroke-miterlimit:3.25;" d="M 235.214844 67.835938 L 243.199219 68.535156 L 246.394531 73.425781 " transform="matrix(1,0,0,1,-83,-6)"/>
<path style="fill:none;stroke-width:1.25;stroke-linecap:square;stroke-linejoin:miter;stroke:rgb(0%,0%,0%);stroke-opacity:1;stroke-miterlimit:3.25;" d="M 235.214844 67.835938 L 225.632813 68.632813 " transform="matrix(1,0,0,1,-83,-6)"/>
<path style="fill:none;stroke-width:1.25;stroke-linecap:square;stroke-linejoin:miter;stroke:rgb(0%,0%,0%);stroke-opacity:1;stroke-miterlimit:3.25;" d="M 235.214844 67.835938 L 231.148438 82.035156 L 231.421875 90.394531 L 233.890625 97.753906 L 239.207031 103.769531 " transform="matrix(1,0,0,1,-83,-6)"/>
<path style="fill:none;stroke-width:1.25;stroke-linecap:square;stroke-linejoin:miter;stroke:rgb(0%,0%,0%);stroke-opacity:1;stroke-miterlimit:3.25;" d="M 225.632813 68.632813 L 217.644531 72.355469 L 211.097656 76.320313 L 205.777344 80.496094 L 201.460938 84.859375 L 197.925781 89.390625 L 194.957031 94.054688 L 192.359375 98.851563 L 190.058594 103.867188 L 188.003906 109.207031 L 186.148438 114.980469 L 184.445313 121.296875 L 182.847656 128.257813 L 181.300781 135.875 L 179.742188 143.792969 L 178.113281 151.546875 L 176.34375 158.679688 L 174.371094 164.730469 L 172.132813 169.246094 " transform="matrix(1,0,0,1,-83,-6)"/>
<path style="fill:none;stroke-width:1.25;stroke-linecap:square;stroke-linejoin:miter;stroke:rgb(0%,0%,0%);stroke-opacity:1;stroke-miterlimit:3.25;" d="M 246.394531 73.425781 L 241.511719 72.773438 L 238.347656 74.277344 L 236.480469 77.242188 L 235.488281 80.964844 L 235.082031 84.921875 L 235.160156 88.832031 L 235.644531 92.433594 L 236.480469 95.480469 L 237.949219 97.863281 L 240.554688 99.566406 L 244.796875 100.574219 " transform="matrix(1,0,0,1,-83,-6)"/>
<path style="fill:none;stroke-width:1.25;stroke-linecap:square;stroke-linejoin:miter;stroke:rgb(0%,0%,0%);stroke-opacity:1;stroke-miterlimit:3.25;" d="M 246.394531 73.425781 L 248.464844 80.996094 L 248.050781 91.40625 L 244.796875 100.574219 " transform="matrix(1,0,0,1,-83,-6)"/>
<path style="fill:none;stroke-width:1.25;stroke-linecap:square;stroke-linejoin:miter;stroke:rgb(0%,0%,0%);stroke-opacity:1;stroke-miterlimit:3.25;" d="M 107.453125 80.613281 L 96.273438 81.410156 " transform="matrix(1,0,0,1,-83,-6)"/>
<path style="fill:none;stroke-width:1.25;stroke-linecap:square;stroke-linejoin:miter;stroke:rgb(0%,0%,0%);stroke-opacity:1;stroke-miterlimit:3.25;" d="M 107.453125 80.613281 L 110.648438 83.007813 " transform="matrix(1,0,0,1,-83,-6)"/>
<path style="fill:none;stroke-width:1.25;stroke-linecap:square;stroke-linejoin:miter;stroke:rgb(0%,0%,0%);stroke-opacity:1;stroke-miterlimit:3.25;" d="M 107.453125 80.613281 L 106.65625 82.210938 " transform="matrix(1,0,0,1,-83,-6)"/>
<path style="fill:none;stroke-width:1.25;stroke-linecap:square;stroke-linejoin:miter;stroke:rgb(0%,0%,0%);stroke-opacity:1;stroke-miterlimit:3.25;" d="M 96.273438 81.410156 L 93.082031 86.203125 " transform="matrix(1,0,0,1,-83,-6)"/>
<path style="fill:none;stroke-width:1.25;stroke-linecap:square;stroke-linejoin:miter;stroke:rgb(0%,0%,0%);stroke-opacity:1;stroke-miterlimit:3.25;" d="M 96.273438 81.410156 L 106.65625 82.210938 " transform="matrix(1,0,0,1,-83,-6)"/>
<path style="fill:none;stroke-width:1.25;stroke-linecap:square;stroke-linejoin:miter;stroke:rgb(0%,0%,0%);stroke-opacity:1;stroke-miterlimit:3.25;" d="M 106.65625 82.210938 L 110.648438 83.007813 " transform="matrix(1,0,0,1,-83,-6)"/>
<path style="fill:none;stroke-width:1.25;stroke-linecap:square;stroke-linejoin:miter;stroke:rgb(0%,0%,0%);stroke-opacity:1;stroke-miterlimit:3.25;" d="M 110.648438 83.007813 L 112.246094 83.804688 " transform="matrix(1,0,0,1,-83,-6)"/>
<path style="fill:none;stroke-width:1.25;stroke-linecap:square;stroke-linejoin:miter;stroke:rgb(0%,0%,0%);stroke-opacity:1;stroke-miterlimit:3.25;" d="M 112.246094 83.804688 L 113.042969 87 " transform="matrix(1,0,0,1,-83,-6)"/>
<path style="fill:none;stroke-width:1.25;stroke-linecap:square;stroke-linejoin:miter;stroke:rgb(0%,0%,0%);stroke-opacity:1;stroke-miterlimit:3.25;" d="M 93.082031 86.203125 L 90.988281 96.109375 L 90.714844 103.175781 L 91.683594 109.359375 L 93.496094 116.160156 L 96.460938 123.316406 L 101.066406 130.121094 " transform="matrix(1,0,0,1,-83,-6)"/>
<path style="fill:none;stroke-width:1.25;stroke-linecap:square;stroke-linejoin:miter;stroke:rgb(0%,0%,0%);stroke-opacity:1;stroke-miterlimit:3.25;" d="M 93.082031 86.203125 L 97.074219 90.195313 " transform="matrix(1,0,0,1,-83,-6)"/>
<path style="fill:none;stroke-width:1.25;stroke-linecap:square;stroke-linejoin:miter;stroke:rgb(0%,0%,0%);stroke-opacity:1;stroke-miterlimit:3.25;" d="M 113.042969 87 L 113.84375 91.792969 " transform="matrix(1,0,0,1,-83,-6)"/>
<path style="fill:none;stroke-width:1.25;stroke-linecap:square;stroke-linejoin:miter;stroke:rgb(0%,0%,0%);stroke-opacity:1;stroke-miterlimit:3.25;" d="M 113.042969 87 L 101.066406 90.992188 " transform="matrix(1,0,0,1,-83,-6)"/>
<path style="fill:none;stroke-width:1.25;stroke-linecap:square;stroke-linejoin:miter;stroke:rgb(0%,0%,0%);stroke-opacity:1;stroke-miterlimit:3.25;" d="M 97.074219 90.195313 L 101.066406 90.992188 " transform="matrix(1,0,0,1,-83,-6)"/>
<path style="fill:none;stroke-width:1.25;stroke-linecap:square;stroke-linejoin:miter;stroke:rgb(0%,0%,0%);stroke-opacity:1;stroke-miterlimit:3.25;" d="M 97.074219 90.195313 L 100.269531 92.589844 " transform="matrix(1,0,0,1,-83,-6)"/>
<path style="fill:none;stroke-width:1.25;stroke-linecap:square;stroke-linejoin:miter;stroke:rgb(0%,0%,0%);stroke-opacity:1;stroke-miterlimit:3.25;" d="M 101.066406 90.992188 L 100.269531 92.589844 " transform="matrix(1,0,0,1,-83,-6)"/>
<path style="fill:none;stroke-width:1.25;stroke-linecap:square;stroke-linejoin:miter;stroke:rgb(0%,0%,0%);stroke-opacity:1;stroke-miterlimit:3.25;" d="M 113.84375 91.792969 L 100.269531 92.589844 " transform="matrix(1,0,0,1,-83,-6)"/>
<path style="fill:none;stroke-width:1.25;stroke-linecap:square;stroke-linejoin:miter;stroke:rgb(0%,0%,0%);stroke-opacity:1;stroke-miterlimit:3.25;" d="M 113.84375 91.792969 L 120.230469 112.550781 " transform="matrix(1,0,0,1,-83,-6)"/>
<path style="fill:none;stroke-width:1.25;stroke-linecap:square;stroke-linejoin:miter;stroke:rgb(0%,0%,0%);stroke-opacity:1;stroke-miterlimit:3.25;" d="M 244.796875 100.574219 L 239.207031 103.769531 " transform="matrix(1,0,0,1,-83,-6)"/>
<path style="fill:none;stroke-width:1.25;stroke-linecap:square;stroke-linejoin:miter;stroke:rgb(0%,0%,0%);stroke-opacity:1;stroke-miterlimit:3.25;" d="M 239.207031 103.769531 L 236.8125 107.761719 " transform="matrix(1,0,0,1,-83,-6)"/>
<path style="fill:none;stroke-width:1.25;stroke-linecap:square;stroke-linejoin:miter;stroke:rgb(0%,0%,0%);stroke-opacity:1;stroke-miterlimit:3.25;" d="M 236.8125 107.761719 L 226.429688 116.542969 " transform="matrix(1,0,0,1,-83,-6)"/>
<path style="fill:none;stroke-width:1.25;stroke-linecap:square;stroke-linejoin:miter;stroke:rgb(0%,0%,0%);stroke-opacity:1;stroke-miterlimit:3.25;" d="M 236.8125 107.761719 L 245.269531 111.371094 L 249.113281 114.800781 L 249.585938 118.941406 " transform="matrix(1,0,0,1,-83,-6)"/>
<path style="fill:none;stroke-width:1.25;stroke-linecap:square;stroke-linejoin:miter;stroke:rgb(0%,0%,0%);stroke-opacity:1;stroke-miterlimit:3.25;" d="M 120.230469 112.550781 L 134.640625 126.675781 L 146.878906 138.105469 L 155.375 147.136719 L 158.558594 154.074219 " transform="matrix(1,0,0,1,-83,-6)"/>
<path style="fill:none;stroke-width:1.25;stroke-linecap:square;stroke-linejoin:miter;stroke:rgb(0%,0%,0%);stroke-opacity:1;stroke-miterlimit:3.25;" d="M 120.230469 112.550781 L 101.066406 130.121094 " transform="matrix(1,0,0,1,-83,-6)"/>
<path style="fill:none;stroke-width:1.25;stroke-linecap:square;stroke-linejoin:miter;stroke:rgb(0%,0%,0%);stroke-opacity:1;stroke-miterlimit:3.25;" d="M 226.429688 116.542969 L 217.050781 136.109375 L 214.453125 154.875 " transform="matrix(1,0,0,1,-83,-6)"/>
<path style="fill:none;stroke-width:1.25;stroke-linecap:square;stroke-linejoin:miter;stroke:rgb(0%,0%,0%);stroke-opacity:1;stroke-miterlimit:3.25;" d="M 228.828125 117.34375 L 249.585938 118.941406 " transform="matrix(1,0,0,1,-83,-6)"/>
<path style="fill:none;stroke-width:1.25;stroke-linecap:square;stroke-linejoin:miter;stroke:rgb(0%,0%,0%);stroke-opacity:1;stroke-miterlimit:3.25;" d="M 228.828125 117.34375 L 249.585938 142.097656 " transform="matrix(1,0,0,1,-83,-6)"/>
<path style="fill:none;stroke-width:1.25;stroke-linecap:square;stroke-linejoin:miter;stroke:rgb(0%,0%,0%);stroke-opacity:1;stroke-miterlimit:3.25;" d="M 101.066406 130.121094 L 92.347656 150.960938 L 88.824219 165.902344 L 88.488281 177.828125 L 90.035156 189.5625 L 94.863281 203.691406 L 105.058594 222.746094 " transform="matrix(1,0,0,1,-83,-6)"/>
<path style="fill:none;stroke-width:1.25;stroke-linecap:square;stroke-linejoin:miter;stroke:rgb(0%,0%,0%);stroke-opacity:1;stroke-miterlimit:3.25;" d="M 249.585938 142.097656 L 227.230469 157.269531 " transform="matrix(1,0,0,1,-83,-6)"/>
<path style="fill:none;stroke-width:1.25;stroke-linecap:square;stroke-linejoin:miter;stroke:rgb(0%,0%,0%);stroke-opacity:1;stroke-miterlimit:3.25;" d="M 249.585938 142.097656 L 252.78125 150.082031 " transform="matrix(1,0,0,1,-83,-6)"/>
<path style="fill:none;stroke-width:1.25;stroke-linecap:square;stroke-linejoin:miter;stroke:rgb(0%,0%,0%);stroke-opacity:1;stroke-miterlimit:3.25;" d="M 252.78125 150.082031 L 241.601563 154.074219 " transform="matrix(1,0,0,1,-83,-6)"/>
<path style="fill:none;stroke-width:1.25;stroke-linecap:square;stroke-linejoin:miter;stroke:rgb(0%,0%,0%);stroke-opacity:1;stroke-miterlimit:3.25;" d="M 252.78125 150.082031 L 256.921875 160.464844 L 259.886719 171.15625 L 261.875 182.265625 L 263.066406 193.914063 L 263.261719 206.4375 L 261.890625 220.386719 L 258.371094 236.320313 " transform="matrix(1,0,0,1,-83,-6)"/>
<path style="fill:none;stroke-width:1.25;stroke-linecap:square;stroke-linejoin:miter;stroke:rgb(0%,0%,0%);stroke-opacity:1;stroke-miterlimit:3.25;" d="M 158.558594 154.074219 L 159.15625 162.257813 L 157.761719 177.230469 " transform="matrix(1,0,0,1,-83,-6)"/>
<path style="fill:none;stroke-width:1.25;stroke-linecap:square;stroke-linejoin:miter;stroke:rgb(0%,0%,0%);stroke-opacity:1;stroke-miterlimit:3.25;" d="M 158.558594 154.074219 L 152.359375 171.742188 L 147.605469 183.121094 L 143.484375 190.457031 L 139.195313 195.996094 L 133.945313 201.636719 L 126.992188 207.875 L 117.605469 214.859375 L 105.058594 222.746094 " transform="matrix(1,0,0,1,-83,-6)"/>
<path style="fill:none;stroke-width:1.25;stroke-linecap:square;stroke-linejoin:miter;stroke:rgb(0%,0%,0%);stroke-opacity:1;stroke-miterlimit:3.25;" d="M 214.453125 154.875 L 224.035156 158.867188 " transform="matrix(1,0,0,1,-83,-6)"/>
<path style="fill:none;stroke-width:1.25;stroke-linecap:square;stroke-linejoin:miter;stroke:rgb(0%,0%,0%);stroke-opacity:1;stroke-miterlimit:3.25;" d="M 214.453125 154.875 L 215.253906 159.664063 " transform="matrix(1,0,0,1,-83,-6)"/>
<path style="fill:none;stroke-width:1.25;stroke-linecap:square;stroke-linejoin:miter;stroke:rgb(0%,0%,0%);stroke-opacity:1;stroke-miterlimit:3.25;" d="M 239.207031 154.875 L 227.230469 166.050781 " transform="matrix(1,0,0,1,-83,-6)"/>
<path style="fill:none;stroke-width:1.25;stroke-linecap:square;stroke-linejoin:miter;stroke:rgb(0%,0%,0%);stroke-opacity:1;stroke-miterlimit:3.25;" d="M 227.230469 157.269531 L 224.035156 158.867188 " transform="matrix(1,0,0,1,-83,-6)"/>
<path style="fill:none;stroke-width:1.25;stroke-linecap:square;stroke-linejoin:miter;stroke:rgb(0%,0%,0%);stroke-opacity:1;stroke-miterlimit:3.25;" d="M 227.230469 157.269531 L 225.632813 159.664063 " transform="matrix(1,0,0,1,-83,-6)"/>
<path style="fill:none;stroke-width:1.25;stroke-linecap:square;stroke-linejoin:miter;stroke:rgb(0%,0%,0%);stroke-opacity:1;stroke-miterlimit:3.25;" d="M 224.035156 158.867188 L 225.632813 159.664063 " transform="matrix(1,0,0,1,-83,-6)"/>
<path style="fill:none;stroke-width:1.25;stroke-linecap:square;stroke-linejoin:miter;stroke:rgb(0%,0%,0%);stroke-opacity:1;stroke-miterlimit:3.25;" d="M 225.632813 159.664063 L 223.136719 171.144531 L 224.835938 179.625 " transform="matrix(1,0,0,1,-83,-6)"/>
<path style="fill:none;stroke-width:1.25;stroke-linecap:square;stroke-linejoin:miter;stroke:rgb(0%,0%,0%);stroke-opacity:1;stroke-miterlimit:3.25;" d="M 226.429688 167.648438 L 224.835938 179.625 " transform="matrix(1,0,0,1,-83,-6)"/>
<path style="fill:none;stroke-width:1.25;stroke-linecap:square;stroke-linejoin:miter;stroke:rgb(0%,0%,0%);stroke-opacity:1;stroke-miterlimit:3.25;" d="M 181.714844 173.238281 L 190.671875 172.578125 L 196.828125 172.515625 L 200.890625 172.902344 L 203.558594 173.601563 L 205.539063 174.460938 L 207.320313 175.390625 L 208.988281 176.421875 L 210.570313 177.578125 L 212.097656 178.894531 L 213.613281 180.410156 L 215.101563 182.101563 L 216.523438 183.917969 L 217.832031 185.796875 L 218.984375 187.679688 L 219.941406 189.519531 L 220.683594 191.363281 L 221.214844 193.324219 L 221.535156 195.496094 L 221.640625 197.992188 L 221.519531 200.878906 L 221.105469 204.113281 L 220.316406 207.605469 L 219.066406 211.273438 L 217.277344 215.042969 L 214.96875 218.839844 L 212.332031 222.640625 L 209.597656 226.40625 L 206.992188 230.109375 L 204.726563 233.722656 L 202.910156 237.273438 L 201.539063 240.828125 L 200.597656 244.460938 L 200.078125 248.25 L 200.011719 252.265625 L 200.8125 256.554688 L 203.078125 261.160156 L 207.425781 266.113281 L 214.453125 271.453125 " transform="matrix(1,0,0,1,-83,-6)"/>
<path style="fill:none;stroke-width:1.25;stroke-linecap:square;stroke-linejoin:miter;stroke:rgb(0%,0%,0%);stroke-opacity:1;stroke-miterlimit:3.25;" d="M 157.761719 177.230469 L 138.597656 205.976563 " transform="matrix(1,0,0,1,-83,-6)"/>
<path style="fill:none;stroke-width:1.25;stroke-linecap:square;stroke-linejoin:miter;stroke:rgb(0%,0%,0%);stroke-opacity:1;stroke-miterlimit:3.25;" d="M 157.761719 177.230469 L 158.558594 185.214844 " transform="matrix(1,0,0,1,-83,-6)"/>
<path style="fill:none;stroke-width:1.25;stroke-linecap:square;stroke-linejoin:miter;stroke:rgb(0%,0%,0%);stroke-opacity:1;stroke-miterlimit:3.25;" d="M 225.632813 180.425781 L 225.632813 182.820313 " transform="matrix(1,0,0,1,-83,-6)"/>
<path style="fill:none;stroke-width:1.25;stroke-linecap:square;stroke-linejoin:miter;stroke:rgb(0%,0%,0%);stroke-opacity:1;stroke-miterlimit:3.25;" d="M 225.632813 180.425781 L 225.632813 182.820313 " transform="matrix(1,0,0,1,-83,-6)"/>
<path style="fill:none;stroke-width:1.25;stroke-linecap:square;stroke-linejoin:miter;stroke:rgb(0%,0%,0%);stroke-opacity:1;stroke-miterlimit:3.25;" d="M 225.632813 182.820313 L 228.027344 186.015625 " transform="matrix(1,0,0,1,-83,-6)"/>
<path style="fill:none;stroke-width:1.25;stroke-linecap:square;stroke-linejoin:miter;stroke:rgb(0%,0%,0%);stroke-opacity:1;stroke-miterlimit:3.25;" d="M 158.558594 185.214844 L 162.550781 190.007813 " transform="matrix(1,0,0,1,-83,-6)"/>
<path style="fill:none;stroke-width:1.25;stroke-linecap:square;stroke-linejoin:miter;stroke:rgb(0%,0%,0%);stroke-opacity:1;stroke-miterlimit:3.25;" d="M 158.558594 185.214844 L 159.976563 205.535156 L 162.105469 220.707031 L 164.945313 230.730469 " transform="matrix(1,0,0,1,-83,-6)"/>
<path style="fill:none;stroke-width:1.25;stroke-linecap:square;stroke-linejoin:miter;stroke:rgb(0%,0%,0%);stroke-opacity:1;stroke-miterlimit:3.25;" d="M 228.027344 186.015625 L 229.625 188.410156 " transform="matrix(1,0,0,1,-83,-6)"/>
<path style="fill:none;stroke-width:1.25;stroke-linecap:square;stroke-linejoin:miter;stroke:rgb(0%,0%,0%);stroke-opacity:1;stroke-miterlimit:3.25;" d="M 228.027344 186.015625 L 228.027344 189.207031 " transform="matrix(1,0,0,1,-83,-6)"/>
<path style="fill:none;stroke-width:1.25;stroke-linecap:square;stroke-linejoin:miter;stroke:rgb(0%,0%,0%);stroke-opacity:1;stroke-miterlimit:3.25;" d="M 229.625 188.410156 L 228.027344 189.207031 " transform="matrix(1,0,0,1,-83,-6)"/>
<path style="fill:none;stroke-width:1.25;stroke-linecap:square;stroke-linejoin:miter;stroke:rgb(0%,0%,0%);stroke-opacity:1;stroke-miterlimit:3.25;" d="M 229.625 188.410156 L 230.421875 192.402344 " transform="matrix(1,0,0,1,-83,-6)"/>
<path style="fill:none;stroke-width:1.25;stroke-linecap:square;stroke-linejoin:miter;stroke:rgb(0%,0%,0%);stroke-opacity:1;stroke-miterlimit:3.25;" d="M 228.027344 189.207031 L 229.625 193.203125 " transform="matrix(1,0,0,1,-83,-6)"/>
<path style="fill:none;stroke-width:1.25;stroke-linecap:square;stroke-linejoin:miter;stroke:rgb(0%,0%,0%);stroke-opacity:1;stroke-miterlimit:3.25;" d="M 162.550781 190.007813 L 174.46875 197.28125 L 188.695313 206.15625 L 206.46875 213.960938 " transform="matrix(1,0,0,1,-83,-6)"/>
<path style="fill:none;stroke-width:1.25;stroke-linecap:square;stroke-linejoin:miter;stroke:rgb(0%,0%,0%);stroke-opacity:1;stroke-miterlimit:3.25;" d="M 162.550781 190.007813 L 174.527344 207.574219 " transform="matrix(1,0,0,1,-83,-6)"/>
<path style="fill:none;stroke-width:1.25;stroke-linecap:square;stroke-linejoin:miter;stroke:rgb(0%,0%,0%);stroke-opacity:1;stroke-miterlimit:3.25;" d="M 230.421875 192.402344 L 233.617188 199.589844 " transform="matrix(1,0,0,1,-83,-6)"/>
<path style="fill:none;stroke-width:1.25;stroke-linecap:square;stroke-linejoin:miter;stroke:rgb(0%,0%,0%);stroke-opacity:1;stroke-miterlimit:3.25;" d="M 229.625 193.203125 L 227.230469 224.34375 " transform="matrix(1,0,0,1,-83,-6)"/>
<path style="fill:none;stroke-width:1.25;stroke-linecap:square;stroke-linejoin:miter;stroke:rgb(0%,0%,0%);stroke-opacity:1;stroke-miterlimit:3.25;" d="M 233.617188 199.589844 L 239 208.019531 L 242.609375 219.109375 L 249.585938 230.730469 " transform="matrix(1,0,0,1,-83,-6)"/>
<path style="fill:none;stroke-width:1.25;stroke-linecap:square;stroke-linejoin:miter;stroke:rgb(0%,0%,0%);stroke-opacity:1;stroke-miterlimit:3.25;" d="M 233.617188 199.589844 L 232.820313 209.96875 " transform="matrix(1,0,0,1,-83,-6)"/>
<path style="fill:none;stroke-width:1.25;stroke-linecap:square;stroke-linejoin:miter;stroke:rgb(0%,0%,0%);stroke-opacity:1;stroke-miterlimit:3.25;" d="M 138.597656 205.976563 L 107.453125 227.535156 " transform="matrix(1,0,0,1,-83,-6)"/>
<path style="fill:none;stroke-width:1.25;stroke-linecap:square;stroke-linejoin:miter;stroke:rgb(0%,0%,0%);stroke-opacity:1;stroke-miterlimit:3.25;" d="M 138.597656 205.976563 L 140.191406 209.96875 " transform="matrix(1,0,0,1,-83,-6)"/>
<path style="fill:none;stroke-width:1.25;stroke-linecap:square;stroke-linejoin:miter;stroke:rgb(0%,0%,0%);stroke-opacity:1;stroke-miterlimit:3.25;" d="M 174.527344 207.574219 L 171.777344 213.785156 L 171.15625 218.929688 L 172.132813 224.34375 L 174.085938 231.261719 L 176.035156 240.578125 L 176.925781 253.089844 " transform="matrix(1,0,0,1,-83,-6)"/>
<path style="fill:none;stroke-width:1.25;stroke-linecap:square;stroke-linejoin:miter;stroke:rgb(0%,0%,0%);stroke-opacity:1;stroke-miterlimit:3.25;" d="M 174.527344 207.574219 L 181.714844 214.761719 " transform="matrix(1,0,0,1,-83,-6)"/>
<path style="fill:none;stroke-width:1.25;stroke-linecap:square;stroke-linejoin:miter;stroke:rgb(0%,0%,0%);stroke-opacity:1;stroke-miterlimit:3.25;" d="M 140.191406 209.96875 L 137.984375 214.5 L 136.898438 222.847656 L 138.058594 232.539063 L 142.589844 241.113281 " transform="matrix(1,0,0,1,-83,-6)"/>
<path style="fill:none;stroke-width:1.25;stroke-linecap:square;stroke-linejoin:miter;stroke:rgb(0%,0%,0%);stroke-opacity:1;stroke-miterlimit:3.25;" d="M 140.191406 209.96875 L 142.589844 217.15625 " transform="matrix(1,0,0,1,-83,-6)"/>
<path style="fill:none;stroke-width:1.25;stroke-linecap:square;stroke-linejoin:miter;stroke:rgb(0%,0%,0%);stroke-opacity:1;stroke-miterlimit:3.25;" d="M 232.019531 235.523438 L 232.019531 212.367188 " transform="matrix(1,0,0,1,-83,-6)"/>
<path style="fill:none;stroke-width:1.25;stroke-linecap:square;stroke-linejoin:miter;stroke:rgb(0%,0%,0%);stroke-opacity:1;stroke-miterlimit:3.25;" d="M 142.589844 217.15625 L 155.363281 224.34375 " transform="matrix(1,0,0,1,-83,-6)"/>
<path style="fill:none;stroke-width:1.25;stroke-linecap:square;stroke-linejoin:miter;stroke:rgb(0%,0%,0%);stroke-opacity:1;stroke-miterlimit:3.25;" d="M 142.589844 217.15625 L 146.582031 226.738281 " transform="matrix(1,0,0,1,-83,-6)"/>
<path style="fill:none;stroke-width:1.25;stroke-linecap:square;stroke-linejoin:miter;stroke:rgb(0%,0%,0%);stroke-opacity:1;stroke-miterlimit:3.25;" d="M 105.058594 222.746094 L 107.453125 227.535156 " transform="matrix(1,0,0,1,-83,-6)"/>
<path style="fill:none;stroke-width:1.25;stroke-linecap:square;stroke-linejoin:miter;stroke:rgb(0%,0%,0%);stroke-opacity:1;stroke-miterlimit:3.25;" d="M 234.417969 222.746094 L 240.003906 236.320313 " transform="matrix(1,0,0,1,-83,-6)"/>
<path style="fill:none;stroke-width:1.25;stroke-linecap:square;stroke-linejoin:miter;stroke:rgb(0%,0%,0%);stroke-opacity:1;stroke-miterlimit:3.25;" d="M 227.230469 224.34375 L 224.035156 234.722656 " transform="matrix(1,0,0,1,-83,-6)"/>
<path style="fill:none;stroke-width:1.25;stroke-linecap:square;stroke-linejoin:miter;stroke:rgb(0%,0%,0%);stroke-opacity:1;stroke-miterlimit:3.25;" d="M 227.230469 224.34375 L 231.222656 235.523438 " transform="matrix(1,0,0,1,-83,-6)"/>
<path style="fill:none;stroke-width:1.25;stroke-linecap:square;stroke-linejoin:miter;stroke:rgb(0%,0%,0%);stroke-opacity:1;stroke-miterlimit:3.25;" d="M 146.582031 226.738281 L 164.148438 239.515625 " transform="matrix(1,0,0,1,-83,-6)"/>
<path style="fill:none;stroke-width:1.25;stroke-linecap:square;stroke-linejoin:miter;stroke:rgb(0%,0%,0%);stroke-opacity:1;stroke-miterlimit:3.25;" d="M 146.582031 226.738281 L 147.261719 232.296875 L 151.488281 240.34375 L 160.15625 252.289063 " transform="matrix(1,0,0,1,-83,-6)"/>
<path style="fill:none;stroke-width:1.25;stroke-linecap:square;stroke-linejoin:miter;stroke:rgb(0%,0%,0%);stroke-opacity:1;stroke-miterlimit:3.25;" d="M 107.453125 227.535156 L 120.019531 238.3125 L 132.53125 246.976563 L 144.929688 253.953125 L 157.160156 259.675781 L 169.339844 264.464844 L 182.289063 268.1875 L 196.996094 270.597656 L 214.453125 271.453125 " transform="matrix(1,0,0,1,-83,-6)"/>
<path style="fill:none;stroke-width:1.25;stroke-linecap:square;stroke-linejoin:miter;stroke:rgb(0%,0%,0%);stroke-opacity:1;stroke-miterlimit:3.25;" d="M 224.035156 234.722656 L 212.855469 257.082031 " transform="matrix(1,0,0,1,-83,-6)"/>
<path style="fill:none;stroke-width:1.25;stroke-linecap:square;stroke-linejoin:miter;stroke:rgb(0%,0%,0%);stroke-opacity:1;stroke-miterlimit:3.25;" d="M 231.222656 235.523438 L 232.019531 239.515625 " transform="matrix(1,0,0,1,-83,-6)"/>
<path style="fill:none;stroke-width:1.25;stroke-linecap:square;stroke-linejoin:miter;stroke:rgb(0%,0%,0%);stroke-opacity:1;stroke-miterlimit:3.25;" d="M 232.019531 235.523438 L 232.019531 239.515625 " transform="matrix(1,0,0,1,-83,-6)"/>
<path style="fill:none;stroke-width:1.25;stroke-linecap:square;stroke-linejoin:miter;stroke:rgb(0%,0%,0%);stroke-opacity:1;stroke-miterlimit:3.25;" d="M 258.371094 236.320313 L 252.765625 246.101563 L 247.746094 252.980469 L 242.53125 258.152344 L 236.371094 262.78125 L 229.203125 267.058594 L 221.675781 270.222656 L 214.453125 271.453125 " transform="matrix(1,0,0,1,-83,-6)"/>
<path style="fill:none;stroke-width:1.25;stroke-linecap:square;stroke-linejoin:miter;stroke:rgb(0%,0%,0%);stroke-opacity:1;stroke-miterlimit:3.25;" d="M 232.019531 239.515625 L 233.617188 242.707031 " transform="matrix(1,0,0,1,-83,-6)"/>
<path style="fill:none;stroke-width:1.25;stroke-linecap:square;stroke-linejoin:miter;stroke:rgb(0%,0%,0%);stroke-opacity:1;stroke-miterlimit:3.25;" d="M 233.617188 242.707031 L 231.722656 248.796875 L 230.421875 255.484375 " transform="matrix(1,0,0,1,-83,-6)"/>
<path style="fill:none;stroke-width:1.25;stroke-linecap:square;stroke-linejoin:miter;stroke:rgb(0%,0%,0%);stroke-opacity:1;stroke-miterlimit:3.25;" d="M 233.617188 242.707031 L 239.207031 248.296875 " transform="matrix(1,0,0,1,-83,-6)"/>
<path style="fill:none;stroke-width:1.25;stroke-linecap:square;stroke-linejoin:miter;stroke:rgb(0%,0%,0%);stroke-opacity:1;stroke-miterlimit:3.25;" d="M 226.429688 116.542969 L 228.828125 117.34375 " transform="matrix(1,0,0,1,-83,-6)"/>
</g>
</svg>
