<?xml version="1.0" encoding="UTF-8"?>
<svg xmlns="http://www.w3.org/2000/svg" xmlns:xlink="http://www.w3.org/1999/xlink" width="221pt" height="160pt" viewBox="0 0 221 160" version="1.1">
<g id="surface28">
<path style="fill:none;stroke-width:1.25;stroke-linecap:square;stroke-linejoin:miter;stroke:rgb(0%,0%,0%);stroke-opacity:1;stroke-miterlimit:3.25;" d="M 89.5625 15.507813 L 90.082031 15.507813 " transform="matrix(1,0,0,1,-83,-6)"/>
<path style="fill:none;stroke-width:1.25;stroke-linecap:square;stroke-linejoin:miter;stroke:rgb(0%,0%,0%);stroke-opacity:1;stroke-miterlimit:3.25;" d="M 89.5625 25.402344 L 90.082031 25.402344 " transform="matrix(1,0,0,1,-83,-6)"/>
<path style="fill:none;stroke-width:1.25;stroke-linecap:square;stroke-linejoin:miter;stroke:rgb(0%,0%,0%);stroke-opacity:1;stroke-miterlimit:3.25;" d="M 89.5625 70.699219 L 90.082031 70.699219 " transform="matrix(1,0,0,1,-83,-6)"/>
<path style="fill:none;stroke-width:1.25;stroke-linecap:square;stroke-linejoin:miter;stroke:rgb(0%,0%,0%);stroke-opacity:1;stroke-miterlimit:3.25;" d="M 89.5625 75.386719 L 90.082031 75.386719 " transform="matrix(1,0,0,1,-83,-6)"/>
<path style="fill:none;stroke-width:1.25;stroke-linecap:square;stroke-linejoin:miter;stroke:rgb(0%,0%,0%);stroke-opacity:1;stroke-miterlimit:3.25;" d="M 89.5625 80.59375 L 90.082031 80.59375 " transform="matrix(1,0,0,1,-83,-6)"/>
<path style="fill:none;stroke-width:1.25;stroke-linecap:square;stroke-linejoin:miter;stroke:rgb(0%,0%,0%);stroke-opacity:1;stroke-miterlimit:3.25;" d="M 89.5625 116 L 90.082031 116 " transform="matrix(1,0,0,1,-83,-6)"/>
<path style="fill:none;stroke-width:1.25;stroke-linecap:square;stroke-linejoin:miter;stroke:rgb(0%,0%,0%);stroke-opacity:1;stroke-miterlimit:3.25;" d="M 89.5625 120.683594 L 90.082031 120.683594 " transform="matrix(1,0,0,1,-83,-6)"/>
<path style="fill:none;stroke-width:1.25;stroke-linecap:square;stroke-linejoin:miter;stroke:rgb(0%,0%,0%);stroke-opacity:1;stroke-miterlimit:3.25;" d="M 89.5625 125.890625 L 90.082031 125.890625 " transform="matrix(1,0,0,1,-83,-6)"/>
<path style="fill:none;stroke-width:1.25;stroke-linecap:square;stroke-linejoin:miter;stroke:rgb(0%,0%,0%);stroke-opacity:1;stroke-miterlimit:3.25;" d="M 87.480469 10.300781 L 90.605469 10.820313 L 90.082031 15.507813 " transform="matrix(1,0,0,1,-83,-6)"/>
<path style="fill:none;stroke-width:1.25;stroke-linecap:square;stroke-linejoin:miter;stroke:rgb(0%,0%,0%);stroke-opacity:1;stroke-miterlimit:3.25;" d="M 90.082031 15.507813 L 90.082031 20.714844 " transform="matrix(1,0,0,1,-83,-6)"/>
<path style="fill:none;stroke-width:1.25;stroke-linecap:square;stroke-linejoin:miter;stroke:rgb(0%,0%,0%);stroke-opacity:1;stroke-miterlimit:3.25;" d="M 89.042969 20.714844 L 90.082031 20.714844 " transform="matrix(1,0,0,1,-83,-6)"/>
<path style="fill:none;stroke-width:1.25;stroke-linecap:square;stroke-linejoin:miter;stroke:rgb(0%,0%,0%);stroke-opacity:1;stroke-miterlimit:3.25;" d="M 90.082031 20.714844 L 90.082031 25.402344 " transform="matrix(1,0,0,1,-83,-6)"/>
<path style="fill:none;stroke-width:1.25;stroke-linecap:square;stroke-linejoin:miter;stroke:rgb(0%,0%,0%);stroke-opacity:1;stroke-miterlimit:3.25;" d="M 90.082031 25.402344 L 90.082031 30.605469 " transform="matrix(1,0,0,1,-83,-6)"/>
<path style="fill:none;stroke-width:1.25;stroke-linecap:square;stroke-linejoin:miter;stroke:rgb(0%,0%,0%);stroke-opacity:1;stroke-miterlimit:3.25;" d="M 89.042969 30.605469 L 90.082031 30.605469 " transform="matrix(1,0,0,1,-83,-6)"/>
<path style="fill:none;stroke-width:1.25;stroke-linecap:square;stroke-linejoin:miter;stroke:rgb(0%,0%,0%);stroke-opacity:1;stroke-miterlimit:3.25;" d="M 90.082031 30.605469 L 90.082031 35.292969 " transform="matrix(1,0,0,1,-83,-6)"/>
<path style="fill:none;stroke-width:1.25;stroke-linecap:square;stroke-linejoin:miter;stroke:rgb(0%,0%,0%);stroke-opacity:1;stroke-miterlimit:3.25;" d="M 89.042969 35.292969 L 90.082031 35.292969 " transform="matrix(1,0,0,1,-83,-6)"/>
<path style="fill:none;stroke-width:1.25;stroke-linecap:square;stroke-linejoin:miter;stroke:rgb(0%,0%,0%);stroke-opacity:1;stroke-miterlimit:3.25;" d="M 90.082031 35.292969 L 90.082031 40.5 " transform="matrix(1,0,0,1,-83,-6)"/>
<path style="fill:none;stroke-width:1.25;stroke-linecap:square;stroke-linejoin:miter;stroke:rgb(0%,0%,0%);stroke-opacity:1;stroke-miterlimit:3.25;" d="M 290.023438 35.8125 L 285.335938 58.722656 L 283.253906 61.847656 L 204.632813 117.039063 L 132.777344 142.03125 " transform="matrix(1,0,0,1,-83,-6)"/>
<path style="fill:none;stroke-width:1.25;stroke-linecap:square;stroke-linejoin:miter;stroke:rgb(0%,0%,0%);stroke-opacity:1;stroke-miterlimit:3.25;" d="M 89.042969 40.5 L 90.082031 40.5 " transform="matrix(1,0,0,1,-83,-6)"/>
<path style="fill:none;stroke-width:1.25;stroke-linecap:square;stroke-linejoin:miter;stroke:rgb(0%,0%,0%);stroke-opacity:1;stroke-miterlimit:3.25;" d="M 90.082031 40.5 L 90.082031 45.1875 " transform="matrix(1,0,0,1,-83,-6)"/>
<path style="fill:none;stroke-width:1.25;stroke-linecap:square;stroke-linejoin:miter;stroke:rgb(0%,0%,0%);stroke-opacity:1;stroke-miterlimit:3.25;" d="M 89.042969 45.1875 L 90.082031 45.1875 " transform="matrix(1,0,0,1,-83,-6)"/>
<path style="fill:none;stroke-width:1.25;stroke-linecap:square;stroke-linejoin:miter;stroke:rgb(0%,0%,0%);stroke-opacity:1;stroke-miterlimit:3.25;" d="M 90.082031 45.1875 L 90.082031 50.914063 " transform="matrix(1,0,0,1,-83,-6)"/>
<path style="fill:none;stroke-width:1.25;stroke-linecap:square;stroke-linejoin:miter;stroke:rgb(0%,0%,0%);stroke-opacity:1;stroke-miterlimit:3.25;" d="M 89.042969 50.914063 L 90.082031 50.914063 " transform="matrix(1,0,0,1,-83,-6)"/>
<path style="fill:none;stroke-width:1.25;stroke-linecap:square;stroke-linejoin:miter;stroke:rgb(0%,0%,0%);stroke-opacity:1;stroke-miterlimit:3.25;" d="M 90.082031 50.914063 L 90.082031 55.601563 " transform="matrix(1,0,0,1,-83,-6)"/>
<path style="fill:none;stroke-width:1.25;stroke-linecap:square;stroke-linejoin:miter;stroke:rgb(0%,0%,0%);stroke-opacity:1;stroke-miterlimit:3.25;" d="M 89.042969 55.601563 L 90.082031 55.601563 " transform="matrix(1,0,0,1,-83,-6)"/>
<path style="fill:none;stroke-width:1.25;stroke-linecap:square;stroke-linejoin:miter;stroke:rgb(0%,0%,0%);stroke-opacity:1;stroke-miterlimit:3.25;" d="M 90.082031 55.601563 L 90.082031 60.285156 " transform="matrix(1,0,0,1,-83,-6)"/>
<path style="fill:none;stroke-width:1.25;stroke-linecap:square;stroke-linejoin:miter;stroke:rgb(0%,0%,0%);stroke-opacity:1;stroke-miterlimit:3.25;" d="M 87.480469 60.285156 L 90.082031 60.285156 " transform="matrix(1,0,0,1,-83,-6)"/>
<path style="fill:none;stroke-width:1.25;stroke-linecap:square;stroke-linejoin:miter;stroke:rgb(0%,0%,0%);stroke-opacity:1;stroke-miterlimit:3.25;" d="M 90.082031 60.285156 L 90.082031 65.492188 " transform="matrix(1,0,0,1,-83,-6)"/>
<path style="fill:none;stroke-width:1.25;stroke-linecap:square;stroke-linejoin:miter;stroke:rgb(0%,0%,0%);stroke-opacity:1;stroke-miterlimit:3.25;" d="M 89.042969 65.492188 L 90.082031 65.492188 " transform="matrix(1,0,0,1,-83,-6)"/>
<path style="fill:none;stroke-width:1.25;stroke-linecap:square;stroke-linejoin:miter;stroke:rgb(0%,0%,0%);stroke-opacity:1;stroke-miterlimit:3.25;" d="M 90.082031 65.492188 L 90.082031 70.699219 " transform="matrix(1,0,0,1,-83,-6)"/>
<path style="fill:none;stroke-width:1.25;stroke-linecap:square;stroke-linejoin:miter;stroke:rgb(0%,0%,0%);stroke-opacity:1;stroke-miterlimit:3.25;" d="M 90.082031 70.699219 L 90.082031 75.386719 " transform="matrix(1,0,0,1,-83,-6)"/>
<path style="fill:none;stroke-width:1.25;stroke-linecap:square;stroke-linejoin:miter;stroke:rgb(0%,0%,0%);stroke-opacity:1;stroke-miterlimit:3.25;" d="M 90.082031 75.386719 L 90.082031 80.59375 " transform="matrix(1,0,0,1,-83,-6)"/>
<path style="fill:none;stroke-width:1.25;stroke-linecap:square;stroke-linejoin:miter;stroke:rgb(0%,0%,0%);stroke-opacity:1;stroke-miterlimit:3.25;" d="M 90.082031 80.59375 L 90.082031 85.800781 " transform="matrix(1,0,0,1,-83,-6)"/>
<path style="fill:none;stroke-width:1.25;stroke-linecap:square;stroke-linejoin:miter;stroke:rgb(0%,0%,0%);stroke-opacity:1;stroke-miterlimit:3.25;" d="M 87.480469 85.800781 L 90.082031 85.800781 " transform="matrix(1,0,0,1,-83,-6)"/>
<path style="fill:none;stroke-width:1.25;stroke-linecap:square;stroke-linejoin:miter;stroke:rgb(0%,0%,0%);stroke-opacity:1;stroke-miterlimit:3.25;" d="M 90.082031 85.800781 L 90.082031 90.484375 " transform="matrix(1,0,0,1,-83,-6)"/>
<path style="fill:none;stroke-width:1.25;stroke-linecap:square;stroke-linejoin:miter;stroke:rgb(0%,0%,0%);stroke-opacity:1;stroke-miterlimit:3.25;" d="M 89.042969 90.484375 L 90.082031 90.484375 " transform="matrix(1,0,0,1,-83,-6)"/>
<path style="fill:none;stroke-width:1.25;stroke-linecap:square;stroke-linejoin:miter;stroke:rgb(0%,0%,0%);stroke-opacity:1;stroke-miterlimit:3.25;" d="M 90.082031 90.484375 L 90.082031 96.210938 " transform="matrix(1,0,0,1,-83,-6)"/>
<path style="fill:none;stroke-width:1.25;stroke-linecap:square;stroke-linejoin:miter;stroke:rgb(0%,0%,0%);stroke-opacity:1;stroke-miterlimit:3.25;" d="M 89.042969 96.210938 L 90.082031 96.210938 " transform="matrix(1,0,0,1,-83,-6)"/>
<path style="fill:none;stroke-width:1.25;stroke-linecap:square;stroke-linejoin:miter;stroke:rgb(0%,0%,0%);stroke-opacity:1;stroke-miterlimit:3.25;" d="M 90.082031 96.210938 L 90.082031 100.898438 " transform="matrix(1,0,0,1,-83,-6)"/>
<path style="fill:none;stroke-width:1.25;stroke-linecap:square;stroke-linejoin:miter;stroke:rgb(0%,0%,0%);stroke-opacity:1;stroke-miterlimit:3.25;" d="M 89.042969 100.898438 L 90.082031 100.898438 " transform="matrix(1,0,0,1,-83,-6)"/>
<path style="fill:none;stroke-width:1.25;stroke-linecap:square;stroke-linejoin:miter;stroke:rgb(0%,0%,0%);stroke-opacity:1;stroke-miterlimit:3.25;" d="M 90.082031 100.898438 L 90.082031 105.585938 " transform="matrix(1,0,0,1,-83,-6)"/>
<path style="fill:none;stroke-width:1.25;stroke-linecap:square;stroke-linejoin:miter;stroke:rgb(0%,0%,0%);stroke-opacity:1;stroke-miterlimit:3.25;" d="M 89.042969 105.585938 L 90.082031 105.585938 " transform="matrix(1,0,0,1,-83,-6)"/>
<path style="fill:none;stroke-width:1.25;stroke-linecap:square;stroke-linejoin:miter;stroke:rgb(0%,0%,0%);stroke-opacity:1;stroke-miterlimit:3.25;" d="M 90.082031 105.585938 L 90.082031 110.792969 " transform="matrix(1,0,0,1,-83,-6)"/>
<path style="fill:none;stroke-width:1.25;stroke-linecap:square;stroke-linejoin:miter;stroke:rgb(0%,0%,0%);stroke-opacity:1;stroke-miterlimit:3.25;" d="M 87.480469 110.792969 L 90.082031 110.792969 " transform="matrix(1,0,0,1,-83,-6)"/>
<path style="fill:none;stroke-width:1.25;stroke-linecap:square;stroke-linejoin:miter;stroke:rgb(0%,0%,0%);stroke-opacity:1;stroke-miterlimit:3.25;" d="M 90.082031 110.792969 L 90.082031 116 " transform="matrix(1,0,0,1,-83,-6)"/>
<path style="fill:none;stroke-width:1.25;stroke-linecap:square;stroke-linejoin:miter;stroke:rgb(0%,0%,0%);stroke-opacity:1;stroke-miterlimit:3.25;" d="M 90.082031 116 L 90.082031 120.683594 " transform="matrix(1,0,0,1,-83,-6)"/>
<path style="fill:none;stroke-width:1.25;stroke-linecap:square;stroke-linejoin:miter;stroke:rgb(0%,0%,0%);stroke-opacity:1;stroke-miterlimit:3.25;" d="M 90.082031 120.683594 L 90.082031 125.890625 " transform="matrix(1,0,0,1,-83,-6)"/>
<path style="fill:none;stroke-width:1.25;stroke-linecap:square;stroke-linejoin:miter;stroke:rgb(0%,0%,0%);stroke-opacity:1;stroke-miterlimit:3.25;" d="M 90.082031 125.890625 L 90.082031 131.097656 " transform="matrix(1,0,0,1,-83,-6)"/>
<path style="fill:none;stroke-width:1.25;stroke-linecap:square;stroke-linejoin:miter;stroke:rgb(0%,0%,0%);stroke-opacity:1;stroke-miterlimit:3.25;" d="M 89.042969 131.097656 L 90.082031 131.097656 " transform="matrix(1,0,0,1,-83,-6)"/>
<path style="fill:none;stroke-width:1.25;stroke-linecap:square;stroke-linejoin:miter;stroke:rgb(0%,0%,0%);stroke-opacity:1;stroke-miterlimit:3.25;" d="M 90.082031 131.097656 L 90.082031 135.785156 " transform="matrix(1,0,0,1,-83,-6)"/>
<path style="fill:none;stroke-width:1.25;stroke-linecap:square;stroke-linejoin:miter;stroke:rgb(0%,0%,0%);stroke-opacity:1;stroke-miterlimit:3.25;" d="M 87.480469 135.785156 L 90.082031 135.785156 " transform="matrix(1,0,0,1,-83,-6)"/>
<path style="fill:none;stroke-width:1.25;stroke-linecap:square;stroke-linejoin:miter;stroke:rgb(0%,0%,0%);stroke-opacity:1;stroke-miterlimit:3.25;" d="M 90.082031 135.785156 L 90.082031 141.511719 " transform="matrix(1,0,0,1,-83,-6)"/>
<path style="fill:none;stroke-width:1.25;stroke-linecap:square;stroke-linejoin:miter;stroke:rgb(0%,0%,0%);stroke-opacity:1;stroke-miterlimit:3.25;" d="M 89.042969 141.511719 L 90.082031 141.511719 " transform="matrix(1,0,0,1,-83,-6)"/>
<path style="fill:none;stroke-width:1.25;stroke-linecap:square;stroke-linejoin:miter;stroke:rgb(0%,0%,0%);stroke-opacity:1;stroke-miterlimit:3.25;" d="M 90.082031 141.511719 L 90.082031 146.199219 " transform="matrix(1,0,0,1,-83,-6)"/>
<path style="fill:none;stroke-width:1.25;stroke-linecap:square;stroke-linejoin:miter;stroke:rgb(0%,0%,0%);stroke-opacity:1;stroke-miterlimit:3.25;" d="M 132.777344 142.03125 L 96.332031 148.28125 " transform="matrix(1,0,0,1,-83,-6)"/>
<path style="fill:none;stroke-width:1.25;stroke-linecap:square;stroke-linejoin:miter;stroke:rgb(0%,0%,0%);stroke-opacity:1;stroke-miterlimit:3.25;" d="M 89.042969 146.199219 L 90.082031 146.199219 " transform="matrix(1,0,0,1,-83,-6)"/>
<path style="fill:none;stroke-width:1.25;stroke-linecap:square;stroke-linejoin:miter;stroke:rgb(0%,0%,0%);stroke-opacity:1;stroke-miterlimit:3.25;" d="M 90.082031 146.199219 L 90.082031 150.882813 " transform="matrix(1,0,0,1,-83,-6)"/>
<path style="fill:none;stroke-width:1.25;stroke-linecap:square;stroke-linejoin:miter;stroke:rgb(0%,0%,0%);stroke-opacity:1;stroke-miterlimit:3.25;" d="M 89.042969 150.882813 L 90.082031 150.882813 " transform="matrix(1,0,0,1,-83,-6)"/>
<path style="fill:none;stroke-width:1.25;stroke-linecap:square;stroke-linejoin:miter;stroke:rgb(0%,0%,0%);stroke-opacity:1;stroke-miterlimit:3.25;" d="M 90.082031 150.882813 L 90.082031 156.089844 " transform="matrix(1,0,0,1,-83,-6)"/>
<path style="fill:none;stroke-width:1.25;stroke-linecap:square;stroke-linejoin:miter;stroke:rgb(0%,0%,0%);stroke-opacity:1;stroke-miterlimit:3.25;" d="M 89.042969 156.089844 L 90.082031 156.089844 " transform="matrix(1,0,0,1,-83,-6)"/>
<path style="fill:none;stroke-width:1.25;stroke-linecap:square;stroke-linejoin:miter;stroke:rgb(0%,0%,0%);stroke-opacity:1;stroke-miterlimit:3.25;" d="M 90.082031 156.089844 L 90.605469 160.777344 " transform="matrix(1,0,0,1,-83,-6)"/>
<path style="fill:none;stroke-width:1.25;stroke-linecap:square;stroke-linejoin:miter;stroke:rgb(0%,0%,0%);stroke-opacity:1;stroke-miterlimit:3.25;" d="M 87.480469 160.777344 L 90.605469 160.777344 " transform="matrix(1,0,0,1,-83,-6)"/>
<path style="fill:none;stroke-width:1.25;stroke-linecap:square;stroke-linejoin:miter;stroke:rgb(0%,0%,0%);stroke-opacity:1;stroke-miterlimit:3.25;" d="M 90.605469 160.777344 L 91.125 161.816406 " transform="matrix(1,0,0,1,-83,-6)"/>
<path style="fill:none;stroke-width:1.25;stroke-linecap:square;stroke-linejoin:miter;stroke:rgb(0%,0%,0%);stroke-opacity:1;stroke-miterlimit:3.25;" d="M 91.125 161.816406 L 96.851563 161.816406 " transform="matrix(1,0,0,1,-83,-6)"/>
<path style="fill:none;stroke-width:1.25;stroke-linecap:square;stroke-linejoin:miter;stroke:rgb(0%,0%,0%);stroke-opacity:1;stroke-miterlimit:3.25;" d="M 91.125 161.816406 L 90.605469 164.421875 " transform="matrix(1,0,0,1,-83,-6)"/>
<path style="fill:none;stroke-width:1.25;stroke-linecap:square;stroke-linejoin:miter;stroke:rgb(0%,0%,0%);stroke-opacity:1;stroke-miterlimit:3.25;" d="M 96.851563 161.816406 L 103.101563 161.816406 " transform="matrix(1,0,0,1,-83,-6)"/>
<path style="fill:none;stroke-width:1.25;stroke-linecap:square;stroke-linejoin:miter;stroke:rgb(0%,0%,0%);stroke-opacity:1;stroke-miterlimit:3.25;" d="M 96.851563 162.859375 L 96.851563 161.816406 " transform="matrix(1,0,0,1,-83,-6)"/>
<path style="fill:none;stroke-width:1.25;stroke-linecap:square;stroke-linejoin:miter;stroke:rgb(0%,0%,0%);stroke-opacity:1;stroke-miterlimit:3.25;" d="M 103.101563 161.816406 L 108.828125 161.816406 " transform="matrix(1,0,0,1,-83,-6)"/>
<path style="fill:none;stroke-width:1.25;stroke-linecap:square;stroke-linejoin:miter;stroke:rgb(0%,0%,0%);stroke-opacity:1;stroke-miterlimit:3.25;" d="M 103.101563 162.859375 L 103.101563 161.816406 " transform="matrix(1,0,0,1,-83,-6)"/>
<path style="fill:none;stroke-width:1.25;stroke-linecap:square;stroke-linejoin:miter;stroke:rgb(0%,0%,0%);stroke-opacity:1;stroke-miterlimit:3.25;" d="M 108.828125 161.816406 L 115.074219 161.816406 " transform="matrix(1,0,0,1,-83,-6)"/>
<path style="fill:none;stroke-width:1.25;stroke-linecap:square;stroke-linejoin:miter;stroke:rgb(0%,0%,0%);stroke-opacity:1;stroke-miterlimit:3.25;" d="M 108.828125 163.378906 L 108.828125 161.816406 " transform="matrix(1,0,0,1,-83,-6)"/>
<path style="fill:none;stroke-width:1.25;stroke-linecap:square;stroke-linejoin:miter;stroke:rgb(0%,0%,0%);stroke-opacity:1;stroke-miterlimit:3.25;" d="M 115.074219 161.816406 L 120.804688 161.816406 " transform="matrix(1,0,0,1,-83,-6)"/>
<path style="fill:none;stroke-width:1.25;stroke-linecap:square;stroke-linejoin:miter;stroke:rgb(0%,0%,0%);stroke-opacity:1;stroke-miterlimit:3.25;" d="M 115.074219 163.378906 L 115.074219 161.816406 " transform="matrix(1,0,0,1,-83,-6)"/>
<path style="fill:none;stroke-width:1.25;stroke-linecap:square;stroke-linejoin:miter;stroke:rgb(0%,0%,0%);stroke-opacity:1;stroke-miterlimit:3.25;" d="M 120.804688 161.816406 L 127.570313 161.816406 " transform="matrix(1,0,0,1,-83,-6)"/>
<path style="fill:none;stroke-width:1.25;stroke-linecap:square;stroke-linejoin:miter;stroke:rgb(0%,0%,0%);stroke-opacity:1;stroke-miterlimit:3.25;" d="M 120.804688 162.859375 L 120.804688 161.816406 " transform="matrix(1,0,0,1,-83,-6)"/>
<path style="fill:none;stroke-width:1.25;stroke-linecap:square;stroke-linejoin:miter;stroke:rgb(0%,0%,0%);stroke-opacity:1;stroke-miterlimit:3.25;" d="M 127.570313 161.816406 L 132.777344 161.816406 " transform="matrix(1,0,0,1,-83,-6)"/>
<path style="fill:none;stroke-width:1.25;stroke-linecap:square;stroke-linejoin:miter;stroke:rgb(0%,0%,0%);stroke-opacity:1;stroke-miterlimit:3.25;" d="M 127.570313 163.378906 L 127.570313 161.816406 " transform="matrix(1,0,0,1,-83,-6)"/>
<path style="fill:none;stroke-width:1.25;stroke-linecap:square;stroke-linejoin:miter;stroke:rgb(0%,0%,0%);stroke-opacity:1;stroke-miterlimit:3.25;" d="M 132.777344 161.816406 L 139.027344 161.816406 " transform="matrix(1,0,0,1,-83,-6)"/>
<path style="fill:none;stroke-width:1.25;stroke-linecap:square;stroke-linejoin:miter;stroke:rgb(0%,0%,0%);stroke-opacity:1;stroke-miterlimit:3.25;" d="M 132.777344 163.378906 L 132.777344 161.816406 " transform="matrix(1,0,0,1,-83,-6)"/>
<path style="fill:none;stroke-width:1.25;stroke-linecap:square;stroke-linejoin:miter;stroke:rgb(0%,0%,0%);stroke-opacity:1;stroke-miterlimit:3.25;" d="M 139.027344 161.816406 L 145.273438 161.816406 " transform="matrix(1,0,0,1,-83,-6)"/>
<path style="fill:none;stroke-width:1.25;stroke-linecap:square;stroke-linejoin:miter;stroke:rgb(0%,0%,0%);stroke-opacity:1;stroke-miterlimit:3.25;" d="M 139.027344 163.378906 L 139.027344 161.816406 " transform="matrix(1,0,0,1,-83,-6)"/>
<path style="fill:none;stroke-width:1.25;stroke-linecap:square;stroke-linejoin:miter;stroke:rgb(0%,0%,0%);stroke-opacity:1;stroke-miterlimit:3.25;" d="M 145.273438 161.816406 L 151.523438 161.816406 " transform="matrix(1,0,0,1,-83,-6)"/>
<path style="fill:none;stroke-width:1.25;stroke-linecap:square;stroke-linejoin:miter;stroke:rgb(0%,0%,0%);stroke-opacity:1;stroke-miterlimit:3.25;" d="M 145.273438 163.378906 L 145.273438 161.816406 " transform="matrix(1,0,0,1,-83,-6)"/>
<path style="fill:none;stroke-width:1.25;stroke-linecap:square;stroke-linejoin:miter;stroke:rgb(0%,0%,0%);stroke-opacity:1;stroke-miterlimit:3.25;" d="M 151.523438 161.816406 L 157.25 161.816406 " transform="matrix(1,0,0,1,-83,-6)"/>
<path style="fill:none;stroke-width:1.25;stroke-linecap:square;stroke-linejoin:miter;stroke:rgb(0%,0%,0%);stroke-opacity:1;stroke-miterlimit:3.25;" d="M 151.523438 164.941406 L 151.523438 161.816406 " transform="matrix(1,0,0,1,-83,-6)"/>
<path style="fill:none;stroke-width:1.25;stroke-linecap:square;stroke-linejoin:miter;stroke:rgb(0%,0%,0%);stroke-opacity:1;stroke-miterlimit:3.25;" d="M 157.25 161.816406 L 162.976563 161.816406 " transform="matrix(1,0,0,1,-83,-6)"/>
<path style="fill:none;stroke-width:1.25;stroke-linecap:square;stroke-linejoin:miter;stroke:rgb(0%,0%,0%);stroke-opacity:1;stroke-miterlimit:3.25;" d="M 157.25 163.378906 L 157.25 161.816406 " transform="matrix(1,0,0,1,-83,-6)"/>
<path style="fill:none;stroke-width:1.25;stroke-linecap:square;stroke-linejoin:miter;stroke:rgb(0%,0%,0%);stroke-opacity:1;stroke-miterlimit:3.25;" d="M 162.976563 161.816406 L 169.746094 161.816406 " transform="matrix(1,0,0,1,-83,-6)"/>
<path style="fill:none;stroke-width:1.25;stroke-linecap:square;stroke-linejoin:miter;stroke:rgb(0%,0%,0%);stroke-opacity:1;stroke-miterlimit:3.25;" d="M 169.746094 161.816406 L 174.953125 161.816406 " transform="matrix(1,0,0,1,-83,-6)"/>
<path style="fill:none;stroke-width:1.25;stroke-linecap:square;stroke-linejoin:miter;stroke:rgb(0%,0%,0%);stroke-opacity:1;stroke-miterlimit:3.25;" d="M 169.746094 163.378906 L 169.746094 161.816406 " transform="matrix(1,0,0,1,-83,-6)"/>
<path style="fill:none;stroke-width:1.25;stroke-linecap:square;stroke-linejoin:miter;stroke:rgb(0%,0%,0%);stroke-opacity:1;stroke-miterlimit:3.25;" d="M 174.953125 161.816406 L 181.203125 161.816406 " transform="matrix(1,0,0,1,-83,-6)"/>
<path style="fill:none;stroke-width:1.25;stroke-linecap:square;stroke-linejoin:miter;stroke:rgb(0%,0%,0%);stroke-opacity:1;stroke-miterlimit:3.25;" d="M 174.953125 163.378906 L 174.953125 161.816406 " transform="matrix(1,0,0,1,-83,-6)"/>
<path style="fill:none;stroke-width:1.25;stroke-linecap:square;stroke-linejoin:miter;stroke:rgb(0%,0%,0%);stroke-opacity:1;stroke-miterlimit:3.25;" d="M 181.203125 161.816406 L 187.449219 161.816406 " transform="matrix(1,0,0,1,-83,-6)"/>
<path style="fill:none;stroke-width:1.25;stroke-linecap:square;stroke-linejoin:miter;stroke:rgb(0%,0%,0%);stroke-opacity:1;stroke-miterlimit:3.25;" d="M 181.203125 164.941406 L 181.203125 161.816406 " transform="matrix(1,0,0,1,-83,-6)"/>
<path style="fill:none;stroke-width:1.25;stroke-linecap:square;stroke-linejoin:miter;stroke:rgb(0%,0%,0%);stroke-opacity:1;stroke-miterlimit:3.25;" d="M 187.449219 161.816406 L 193.699219 161.816406 " transform="matrix(1,0,0,1,-83,-6)"/>
<path style="fill:none;stroke-width:1.25;stroke-linecap:square;stroke-linejoin:miter;stroke:rgb(0%,0%,0%);stroke-opacity:1;stroke-miterlimit:3.25;" d="M 187.449219 163.378906 L 187.449219 161.816406 " transform="matrix(1,0,0,1,-83,-6)"/>
<path style="fill:none;stroke-width:1.25;stroke-linecap:square;stroke-linejoin:miter;stroke:rgb(0%,0%,0%);stroke-opacity:1;stroke-miterlimit:3.25;" d="M 193.699219 161.816406 L 199.425781 161.816406 " transform="matrix(1,0,0,1,-83,-6)"/>
<path style="fill:none;stroke-width:1.25;stroke-linecap:square;stroke-linejoin:miter;stroke:rgb(0%,0%,0%);stroke-opacity:1;stroke-miterlimit:3.25;" d="M 193.699219 163.378906 L 193.699219 161.816406 " transform="matrix(1,0,0,1,-83,-6)"/>
<path style="fill:none;stroke-width:1.25;stroke-linecap:square;stroke-linejoin:miter;stroke:rgb(0%,0%,0%);stroke-opacity:1;stroke-miterlimit:3.25;" d="M 199.425781 161.816406 L 206.195313 161.816406 " transform="matrix(1,0,0,1,-83,-6)"/>
<path style="fill:none;stroke-width:1.25;stroke-linecap:square;stroke-linejoin:miter;stroke:rgb(0%,0%,0%);stroke-opacity:1;stroke-miterlimit:3.25;" d="M 199.425781 163.378906 L 199.425781 161.816406 " transform="matrix(1,0,0,1,-83,-6)"/>
<path style="fill:none;stroke-width:1.25;stroke-linecap:square;stroke-linejoin:miter;stroke:rgb(0%,0%,0%);stroke-opacity:1;stroke-miterlimit:3.25;" d="M 206.195313 161.816406 L 211.921875 161.816406 " transform="matrix(1,0,0,1,-83,-6)"/>
<path style="fill:none;stroke-width:1.25;stroke-linecap:square;stroke-linejoin:miter;stroke:rgb(0%,0%,0%);stroke-opacity:1;stroke-miterlimit:3.25;" d="M 211.921875 161.816406 L 218.171875 161.816406 " transform="matrix(1,0,0,1,-83,-6)"/>
<path style="fill:none;stroke-width:1.25;stroke-linecap:square;stroke-linejoin:miter;stroke:rgb(0%,0%,0%);stroke-opacity:1;stroke-miterlimit:3.25;" d="M 211.921875 164.941406 L 211.921875 161.816406 " transform="matrix(1,0,0,1,-83,-6)"/>
<path style="fill:none;stroke-width:1.25;stroke-linecap:square;stroke-linejoin:miter;stroke:rgb(0%,0%,0%);stroke-opacity:1;stroke-miterlimit:3.25;" d="M 218.171875 161.816406 L 223.898438 161.816406 " transform="matrix(1,0,0,1,-83,-6)"/>
<path style="fill:none;stroke-width:1.25;stroke-linecap:square;stroke-linejoin:miter;stroke:rgb(0%,0%,0%);stroke-opacity:1;stroke-miterlimit:3.25;" d="M 218.171875 163.378906 L 218.171875 161.816406 " transform="matrix(1,0,0,1,-83,-6)"/>
<path style="fill:none;stroke-width:1.25;stroke-linecap:square;stroke-linejoin:miter;stroke:rgb(0%,0%,0%);stroke-opacity:1;stroke-miterlimit:3.25;" d="M 223.898438 161.816406 L 230.144531 161.816406 " transform="matrix(1,0,0,1,-83,-6)"/>
<path style="fill:none;stroke-width:1.25;stroke-linecap:square;stroke-linejoin:miter;stroke:rgb(0%,0%,0%);stroke-opacity:1;stroke-miterlimit:3.25;" d="M 230.144531 161.816406 L 235.875 161.816406 " transform="matrix(1,0,0,1,-83,-6)"/>
<path style="fill:none;stroke-width:1.25;stroke-linecap:square;stroke-linejoin:miter;stroke:rgb(0%,0%,0%);stroke-opacity:1;stroke-miterlimit:3.25;" d="M 230.144531 162.859375 L 230.144531 161.816406 " transform="matrix(1,0,0,1,-83,-6)"/>
<path style="fill:none;stroke-width:1.25;stroke-linecap:square;stroke-linejoin:miter;stroke:rgb(0%,0%,0%);stroke-opacity:1;stroke-miterlimit:3.25;" d="M 235.875 161.816406 L 242.121094 161.816406 " transform="matrix(1,0,0,1,-83,-6)"/>
<path style="fill:none;stroke-width:1.25;stroke-linecap:square;stroke-linejoin:miter;stroke:rgb(0%,0%,0%);stroke-opacity:1;stroke-miterlimit:3.25;" d="M 235.875 163.378906 L 235.875 161.816406 " transform="matrix(1,0,0,1,-83,-6)"/>
<path style="fill:none;stroke-width:1.25;stroke-linecap:square;stroke-linejoin:miter;stroke:rgb(0%,0%,0%);stroke-opacity:1;stroke-miterlimit:3.25;" d="M 242.121094 161.816406 L 248.371094 161.816406 " transform="matrix(1,0,0,1,-83,-6)"/>
<path style="fill:none;stroke-width:1.25;stroke-linecap:square;stroke-linejoin:miter;stroke:rgb(0%,0%,0%);stroke-opacity:1;stroke-miterlimit:3.25;" d="M 242.121094 161.816406 L 241.601563 164.941406 " transform="matrix(1,0,0,1,-83,-6)"/>
<path style="fill:none;stroke-width:1.25;stroke-linecap:square;stroke-linejoin:miter;stroke:rgb(0%,0%,0%);stroke-opacity:1;stroke-miterlimit:3.25;" d="M 248.371094 161.816406 L 254.097656 161.816406 " transform="matrix(1,0,0,1,-83,-6)"/>
<path style="fill:none;stroke-width:1.25;stroke-linecap:square;stroke-linejoin:miter;stroke:rgb(0%,0%,0%);stroke-opacity:1;stroke-miterlimit:3.25;" d="M 248.371094 162.859375 L 248.371094 161.816406 " transform="matrix(1,0,0,1,-83,-6)"/>
<path style="fill:none;stroke-width:1.25;stroke-linecap:square;stroke-linejoin:miter;stroke:rgb(0%,0%,0%);stroke-opacity:1;stroke-miterlimit:3.25;" d="M 254.097656 161.816406 L 260.34375 161.816406 " transform="matrix(1,0,0,1,-83,-6)"/>
<path style="fill:none;stroke-width:1.25;stroke-linecap:square;stroke-linejoin:miter;stroke:rgb(0%,0%,0%);stroke-opacity:1;stroke-miterlimit:3.25;" d="M 254.097656 163.378906 L 254.097656 161.816406 " transform="matrix(1,0,0,1,-83,-6)"/>
<path style="fill:none;stroke-width:1.25;stroke-linecap:square;stroke-linejoin:miter;stroke:rgb(0%,0%,0%);stroke-opacity:1;stroke-miterlimit:3.25;" d="M 260.34375 161.816406 L 266.074219 161.816406 " transform="matrix(1,0,0,1,-83,-6)"/>
<path style="fill:none;stroke-width:1.25;stroke-linecap:square;stroke-linejoin:miter;stroke:rgb(0%,0%,0%);stroke-opacity:1;stroke-miterlimit:3.25;" d="M 260.34375 163.378906 L 260.34375 161.816406 " transform="matrix(1,0,0,1,-83,-6)"/>
<path style="fill:none;stroke-width:1.25;stroke-linecap:square;stroke-linejoin:miter;stroke:rgb(0%,0%,0%);stroke-opacity:1;stroke-miterlimit:3.25;" d="M 266.074219 161.816406 L 272.320313 161.816406 " transform="matrix(1,0,0,1,-83,-6)"/>
<path style="fill:none;stroke-width:1.25;stroke-linecap:square;stroke-linejoin:miter;stroke:rgb(0%,0%,0%);stroke-opacity:1;stroke-miterlimit:3.25;" d="M 266.074219 162.859375 L 266.074219 161.816406 " transform="matrix(1,0,0,1,-83,-6)"/>
<path style="fill:none;stroke-width:1.25;stroke-linecap:square;stroke-linejoin:miter;stroke:rgb(0%,0%,0%);stroke-opacity:1;stroke-miterlimit:3.25;" d="M 272.320313 161.816406 L 278.046875 161.816406 " transform="matrix(1,0,0,1,-83,-6)"/>
<path style="fill:none;stroke-width:1.25;stroke-linecap:square;stroke-linejoin:miter;stroke:rgb(0%,0%,0%);stroke-opacity:1;stroke-miterlimit:3.25;" d="M 272.320313 163.902344 L 272.320313 161.816406 " transform="matrix(1,0,0,1,-83,-6)"/>
<path style="fill:none;stroke-width:1.25;stroke-linecap:square;stroke-linejoin:miter;stroke:rgb(0%,0%,0%);stroke-opacity:1;stroke-miterlimit:3.25;" d="M 278.046875 161.816406 L 284.296875 161.816406 " transform="matrix(1,0,0,1,-83,-6)"/>
<path style="fill:none;stroke-width:1.25;stroke-linecap:square;stroke-linejoin:miter;stroke:rgb(0%,0%,0%);stroke-opacity:1;stroke-miterlimit:3.25;" d="M 278.046875 163.378906 L 278.046875 161.816406 " transform="matrix(1,0,0,1,-83,-6)"/>
<path style="fill:none;stroke-width:1.25;stroke-linecap:square;stroke-linejoin:miter;stroke:rgb(0%,0%,0%);stroke-opacity:1;stroke-miterlimit:3.25;" d="M 284.296875 161.816406 L 290.542969 161.816406 " transform="matrix(1,0,0,1,-83,-6)"/>
<path style="fill:none;stroke-width:1.25;stroke-linecap:square;stroke-linejoin:miter;stroke:rgb(0%,0%,0%);stroke-opacity:1;stroke-miterlimit:3.25;" d="M 284.296875 163.378906 L 284.296875 161.816406 " transform="matrix(1,0,0,1,-83,-6)"/>
<path style="fill:none;stroke-width:1.25;stroke-linecap:square;stroke-linejoin:miter;stroke:rgb(0%,0%,0%);stroke-opacity:1;stroke-miterlimit:3.25;" d="M 290.542969 161.816406 L 296.792969 161.816406 " transform="matrix(1,0,0,1,-83,-6)"/>
<path style="fill:none;stroke-width:1.25;stroke-linecap:square;stroke-linejoin:miter;stroke:rgb(0%,0%,0%);stroke-opacity:1;stroke-miterlimit:3.25;" d="M 290.542969 162.859375 L 290.542969 161.816406 " transform="matrix(1,0,0,1,-83,-6)"/>
<path style="fill:none;stroke-width:1.25;stroke-linecap:square;stroke-linejoin:miter;stroke:rgb(0%,0%,0%);stroke-opacity:1;stroke-miterlimit:3.25;" d="M 296.792969 161.816406 L 302 161.816406 L 302.519531 164.941406 " transform="matrix(1,0,0,1,-83,-6)"/>
<path style="fill:none;stroke-width:1.25;stroke-linecap:square;stroke-linejoin:miter;stroke:rgb(0%,0%,0%);stroke-opacity:1;stroke-miterlimit:3.25;" d="M 296.792969 163.378906 L 296.792969 161.816406 " transform="matrix(1,0,0,1,-83,-6)"/>
<path style="fill:none;stroke-width:1.25;stroke-linecap:square;stroke-linejoin:miter;stroke:rgb(0%,0%,0%);stroke-opacity:1;stroke-miterlimit:3.25;" d="M 132.257813 140.46875 L 132.777344 142.03125 " transform="matrix(1,0,0,1,-83,-6)"/>
<path style="fill:none;stroke-width:1.25;stroke-linecap:square;stroke-linejoin:miter;stroke:rgb(0%,0%,0%);stroke-opacity:1;stroke-miterlimit:3.25;" d="M 162.976563 161.816406 L 163.5 163.378906 " transform="matrix(1,0,0,1,-83,-6)"/>
<path style="fill:none;stroke-width:1.25;stroke-linecap:square;stroke-linejoin:miter;stroke:rgb(0%,0%,0%);stroke-opacity:1;stroke-miterlimit:3.25;" d="M 206.195313 161.816406 L 205.675781 163.378906 " transform="matrix(1,0,0,1,-83,-6)"/>
<path style="fill:none;stroke-width:1.25;stroke-linecap:square;stroke-linejoin:miter;stroke:rgb(0%,0%,0%);stroke-opacity:1;stroke-miterlimit:3.25;" d="M 223.898438 161.816406 L 223.375 163.378906 " transform="matrix(1,0,0,1,-83,-6)"/>
</g>
</svg>
