<?xml version="1.0" encoding="UTF-8"?>
<svg xmlns="http://www.w3.org/2000/svg" xmlns:xlink="http://www.w3.org/1999/xlink" width="221pt" height="220pt" viewBox="0 0 221 220" version="1.1">
<g id="surface35">
<path style="fill:none;stroke-width:1.25;stroke-linecap:square;stroke-linejoin:miter;stroke:rgb(0%,0%,0%);stroke-opacity:1;stroke-miterlimit:3.25;" d="M 119.105469 24.675781 L 119.105469 24.101563 " transform="matrix(1,0,0,1,-83,-6)"/>
<path style="fill:none;stroke-width:1.25;stroke-linecap:square;stroke-linejoin:miter;stroke:rgb(0%,0%,0%);stroke-opacity:1;stroke-miterlimit:3.25;" d="M 119.105469 29.851563 L 119.105469 29.273438 " transform="matrix(1,0,0,1,-83,-6)"/>
<path style="fill:none;stroke-width:1.25;stroke-linecap:square;stroke-linejoin:miter;stroke:rgb(0%,0%,0%);stroke-opacity:1;stroke-miterlimit:3.25;" d="M 119.105469 35.023438 L 119.105469 34.449219 " transform="matrix(1,0,0,1,-83,-6)"/>
<path style="fill:none;stroke-width:1.25;stroke-linecap:square;stroke-linejoin:miter;stroke:rgb(0%,0%,0%);stroke-opacity:1;stroke-miterlimit:3.25;" d="M 236.398438 89.648438 L 236.398438 89.070313 " transform="matrix(1,0,0,1,-83,-6)"/>
<path style="fill:none;stroke-width:1.25;stroke-linecap:square;stroke-linejoin:miter;stroke:rgb(0%,0%,0%);stroke-opacity:1;stroke-miterlimit:3.25;" d="M 236.398438 94.820313 L 236.398438 94.246094 " transform="matrix(1,0,0,1,-83,-6)"/>
<path style="fill:none;stroke-width:1.25;stroke-linecap:square;stroke-linejoin:miter;stroke:rgb(0%,0%,0%);stroke-opacity:1;stroke-miterlimit:3.25;" d="M 236.398438 99.996094 L 236.398438 99.421875 " transform="matrix(1,0,0,1,-83,-6)"/>
<path style="fill:none;stroke-width:1.25;stroke-linecap:square;stroke-linejoin:miter;stroke:rgb(0%,0%,0%);stroke-opacity:1;stroke-miterlimit:3.25;" d="M 119.105469 144.84375 L 119.105469 144.269531 " transform="matrix(1,0,0,1,-83,-6)"/>
<path style="fill:none;stroke-width:1.25;stroke-linecap:square;stroke-linejoin:miter;stroke:rgb(0%,0%,0%);stroke-opacity:1;stroke-miterlimit:3.25;" d="M 119.105469 150.019531 L 119.105469 149.445313 " transform="matrix(1,0,0,1,-83,-6)"/>
<path style="fill:none;stroke-width:1.25;stroke-linecap:square;stroke-linejoin:miter;stroke:rgb(0%,0%,0%);stroke-opacity:1;stroke-miterlimit:3.25;" d="M 119.105469 155.195313 L 119.105469 154.617188 " transform="matrix(1,0,0,1,-83,-6)"/>
<path style="fill:none;stroke-width:1.25;stroke-linecap:square;stroke-linejoin:miter;stroke:rgb(0%,0%,0%);stroke-opacity:1;stroke-miterlimit:3.25;" d="M 236.398438 158.644531 L 236.398438 158.070313 " transform="matrix(1,0,0,1,-83,-6)"/>
<path style="fill:none;stroke-width:1.25;stroke-linecap:square;stroke-linejoin:miter;stroke:rgb(0%,0%,0%);stroke-opacity:1;stroke-miterlimit:3.25;" d="M 236.398438 163.820313 L 236.398438 163.242188 " transform="matrix(1,0,0,1,-83,-6)"/>
<path style="fill:none;stroke-width:1.25;stroke-linecap:square;stroke-linejoin:miter;stroke:rgb(0%,0%,0%);stroke-opacity:1;stroke-miterlimit:3.25;" d="M 111.628906 17.777344 L 119.105469 18.925781 L 119.679688 18.351563 L 126.578125 18.351563 " transform="matrix(1,0,0,1,-83,-6)"/>
<path style="fill:none;stroke-width:1.25;stroke-linecap:square;stroke-linejoin:miter;stroke:rgb(0%,0%,0%);stroke-opacity:1;stroke-miterlimit:3.25;" d="M 119.105469 40.199219 L 119.105469 39.050781 " transform="matrix(1,0,0,1,-83,-6)"/>
<path style="fill:none;stroke-width:1.25;stroke-linecap:square;stroke-linejoin:miter;stroke:rgb(0%,0%,0%);stroke-opacity:1;stroke-miterlimit:3.25;" d="M 119.105469 45.375 L 119.105469 44.222656 " transform="matrix(1,0,0,1,-83,-6)"/>
<path style="fill:none;stroke-width:1.25;stroke-linecap:square;stroke-linejoin:miter;stroke:rgb(0%,0%,0%);stroke-opacity:1;stroke-miterlimit:3.25;" d="M 88.628906 48.25 L 90.929688 48.25 " transform="matrix(1,0,0,1,-83,-6)"/>
<path style="fill:none;stroke-width:1.25;stroke-linecap:square;stroke-linejoin:miter;stroke:rgb(0%,0%,0%);stroke-opacity:1;stroke-miterlimit:3.25;" d="M 90.929688 48.25 L 92.078125 47.097656 L 92.078125 11.449219 L 93.230469 10.300781 L 301.371094 10.300781 L 302.519531 11.449219 L 302.519531 136.792969 L 301.371094 137.945313 " transform="matrix(1,0,0,1,-83,-6)"/>
<path style="fill:none;stroke-width:1.25;stroke-linecap:square;stroke-linejoin:miter;stroke:rgb(0%,0%,0%);stroke-opacity:1;stroke-miterlimit:3.25;" d="M 90.929688 48.25 L 92.078125 49.398438 L 92.078125 90.222656 L 90.929688 91.371094 " transform="matrix(1,0,0,1,-83,-6)"/>
<path style="fill:none;stroke-width:1.25;stroke-linecap:square;stroke-linejoin:miter;stroke:rgb(0%,0%,0%);stroke-opacity:1;stroke-miterlimit:3.25;" d="M 119.105469 50.550781 L 119.105469 49.398438 " transform="matrix(1,0,0,1,-83,-6)"/>
<path style="fill:none;stroke-width:1.25;stroke-linecap:square;stroke-linejoin:miter;stroke:rgb(0%,0%,0%);stroke-opacity:1;stroke-miterlimit:3.25;" d="M 119.105469 56.875 L 119.105469 54.574219 " transform="matrix(1,0,0,1,-83,-6)"/>
<path style="fill:none;stroke-width:1.25;stroke-linecap:square;stroke-linejoin:miter;stroke:rgb(0%,0%,0%);stroke-opacity:1;stroke-miterlimit:3.25;" d="M 119.105469 56.875 L 104.730469 56.875 L 103.578125 58.023438 L 103.578125 72.972656 L 104.730469 74.121094 " transform="matrix(1,0,0,1,-83,-6)"/>
<path style="fill:none;stroke-width:1.25;stroke-linecap:square;stroke-linejoin:miter;stroke:rgb(0%,0%,0%);stroke-opacity:1;stroke-miterlimit:3.25;" d="M 119.105469 56.875 L 134.054688 56.875 L 135.203125 58.023438 L 135.203125 72.972656 L 134.054688 74.121094 " transform="matrix(1,0,0,1,-83,-6)"/>
<path style="fill:none;stroke-width:1.25;stroke-linecap:square;stroke-linejoin:miter;stroke:rgb(0%,0%,0%);stroke-opacity:1;stroke-miterlimit:3.25;" d="M 150.726563 65.5 L 157.625 65.5 L 158.203125 66.074219 L 165.675781 65.5 " transform="matrix(1,0,0,1,-83,-6)"/>
<path style="fill:none;stroke-width:1.25;stroke-linecap:square;stroke-linejoin:miter;stroke:rgb(0%,0%,0%);stroke-opacity:1;stroke-miterlimit:3.25;" d="M 268.023438 70.097656 L 282.972656 70.097656 " transform="matrix(1,0,0,1,-83,-6)"/>
<path style="fill:none;stroke-width:1.25;stroke-linecap:square;stroke-linejoin:miter;stroke:rgb(0%,0%,0%);stroke-opacity:1;stroke-miterlimit:3.25;" d="M 104.730469 74.121094 L 134.054688 74.121094 " transform="matrix(1,0,0,1,-83,-6)"/>
<path style="fill:none;stroke-width:1.25;stroke-linecap:square;stroke-linejoin:miter;stroke:rgb(0%,0%,0%);stroke-opacity:1;stroke-miterlimit:3.25;" d="M 104.730469 74.121094 L 103.578125 75.273438 L 103.578125 112.070313 L 104.730469 113.222656 L 118.527344 113.222656 L 119.105469 113.796875 L 119.679688 113.222656 L 134.054688 113.222656 L 135.203125 112.070313 L 135.203125 75.273438 L 134.054688 74.121094 " transform="matrix(1,0,0,1,-83,-6)"/>
<path style="fill:none;stroke-width:1.25;stroke-linecap:square;stroke-linejoin:miter;stroke:rgb(0%,0%,0%);stroke-opacity:1;stroke-miterlimit:3.25;" d="M 275.496094 76.421875 L 275.496094 75.273438 " transform="matrix(1,0,0,1,-83,-6)"/>
<path style="fill:none;stroke-width:1.25;stroke-linecap:square;stroke-linejoin:miter;stroke:rgb(0%,0%,0%);stroke-opacity:1;stroke-miterlimit:3.25;" d="M 275.496094 81.597656 L 275.496094 80.449219 " transform="matrix(1,0,0,1,-83,-6)"/>
<path style="fill:none;stroke-width:1.25;stroke-linecap:square;stroke-linejoin:miter;stroke:rgb(0%,0%,0%);stroke-opacity:1;stroke-miterlimit:3.25;" d="M 229.5 82.746094 L 235.824219 82.746094 L 236.398438 83.324219 " transform="matrix(1,0,0,1,-83,-6)"/>
<path style="fill:none;stroke-width:1.25;stroke-linecap:square;stroke-linejoin:miter;stroke:rgb(0%,0%,0%);stroke-opacity:1;stroke-miterlimit:3.25;" d="M 243.871094 82.746094 L 236.972656 82.746094 L 236.398438 83.324219 " transform="matrix(1,0,0,1,-83,-6)"/>
<path style="fill:none;stroke-width:1.25;stroke-linecap:square;stroke-linejoin:miter;stroke:rgb(0%,0%,0%);stroke-opacity:1;stroke-miterlimit:3.25;" d="M 236.398438 84.472656 L 236.398438 83.324219 " transform="matrix(1,0,0,1,-83,-6)"/>
<path style="fill:none;stroke-width:1.25;stroke-linecap:square;stroke-linejoin:miter;stroke:rgb(0%,0%,0%);stroke-opacity:1;stroke-miterlimit:3.25;" d="M 275.496094 86.773438 L 275.496094 85.621094 " transform="matrix(1,0,0,1,-83,-6)"/>
<path style="fill:none;stroke-width:1.25;stroke-linecap:square;stroke-linejoin:miter;stroke:rgb(0%,0%,0%);stroke-opacity:1;stroke-miterlimit:3.25;" d="M 190.398438 87.347656 L 196.148438 87.347656 L 196.726563 87.921875 L 204.199219 87.347656 " transform="matrix(1,0,0,1,-83,-6)"/>
<path style="fill:none;stroke-width:1.25;stroke-linecap:square;stroke-linejoin:miter;stroke:rgb(0%,0%,0%);stroke-opacity:1;stroke-miterlimit:3.25;" d="M 275.496094 91.945313 L 275.496094 90.796875 " transform="matrix(1,0,0,1,-83,-6)"/>
<path style="fill:none;stroke-width:1.25;stroke-linecap:square;stroke-linejoin:miter;stroke:rgb(0%,0%,0%);stroke-opacity:1;stroke-miterlimit:3.25;" d="M 88.628906 91.371094 L 90.929688 91.371094 " transform="matrix(1,0,0,1,-83,-6)"/>
<path style="fill:none;stroke-width:1.25;stroke-linecap:square;stroke-linejoin:miter;stroke:rgb(0%,0%,0%);stroke-opacity:1;stroke-miterlimit:3.25;" d="M 90.929688 91.371094 L 92.078125 92.523438 L 92.078125 133.34375 L 90.929688 134.496094 " transform="matrix(1,0,0,1,-83,-6)"/>
<path style="fill:none;stroke-width:1.25;stroke-linecap:square;stroke-linejoin:miter;stroke:rgb(0%,0%,0%);stroke-opacity:1;stroke-miterlimit:3.25;" d="M 275.496094 97.121094 L 275.496094 95.972656 " transform="matrix(1,0,0,1,-83,-6)"/>
<path style="fill:none;stroke-width:1.25;stroke-linecap:square;stroke-linejoin:miter;stroke:rgb(0%,0%,0%);stroke-opacity:1;stroke-miterlimit:3.25;" d="M 197.300781 99.421875 L 197.300781 98.273438 " transform="matrix(1,0,0,1,-83,-6)"/>
<path style="fill:none;stroke-width:1.25;stroke-linecap:square;stroke-linejoin:miter;stroke:rgb(0%,0%,0%);stroke-opacity:1;stroke-miterlimit:3.25;" d="M 197.300781 99.421875 L 196.726563 99.996094 L 182.925781 99.996094 L 181.777344 101.148438 L 181.777344 109.769531 L 182.925781 110.921875 " transform="matrix(1,0,0,1,-83,-6)"/>
<path style="fill:none;stroke-width:1.25;stroke-linecap:square;stroke-linejoin:miter;stroke:rgb(0%,0%,0%);stroke-opacity:1;stroke-miterlimit:3.25;" d="M 197.300781 99.421875 L 197.875 99.996094 L 211.675781 99.996094 L 212.824219 101.148438 L 212.824219 109.195313 L 211.675781 110.921875 " transform="matrix(1,0,0,1,-83,-6)"/>
<path style="fill:none;stroke-width:1.25;stroke-linecap:square;stroke-linejoin:miter;stroke:rgb(0%,0%,0%);stroke-opacity:1;stroke-miterlimit:3.25;" d="M 275.496094 102.296875 L 275.496094 100.570313 " transform="matrix(1,0,0,1,-83,-6)"/>
<path style="fill:none;stroke-width:1.25;stroke-linecap:square;stroke-linejoin:miter;stroke:rgb(0%,0%,0%);stroke-opacity:1;stroke-miterlimit:3.25;" d="M 258.820313 105.171875 L 259.972656 105.171875 " transform="matrix(1,0,0,1,-83,-6)"/>
<path style="fill:none;stroke-width:1.25;stroke-linecap:square;stroke-linejoin:miter;stroke:rgb(0%,0%,0%);stroke-opacity:1;stroke-miterlimit:3.25;" d="M 259.972656 105.171875 L 260.546875 104.597656 L 289.871094 104.597656 L 291.019531 105.746094 L 291.019531 129.320313 L 289.871094 130.46875 " transform="matrix(1,0,0,1,-83,-6)"/>
<path style="fill:none;stroke-width:1.25;stroke-linecap:square;stroke-linejoin:miter;stroke:rgb(0%,0%,0%);stroke-opacity:1;stroke-miterlimit:3.25;" d="M 259.972656 105.171875 L 259.972656 129.894531 L 260.546875 130.46875 " transform="matrix(1,0,0,1,-83,-6)"/>
<path style="fill:none;stroke-width:1.25;stroke-linecap:square;stroke-linejoin:miter;stroke:rgb(0%,0%,0%);stroke-opacity:1;stroke-miterlimit:3.25;" d="M 182.925781 110.921875 L 211.675781 110.921875 " transform="matrix(1,0,0,1,-83,-6)"/>
<path style="fill:none;stroke-width:1.25;stroke-linecap:square;stroke-linejoin:miter;stroke:rgb(0%,0%,0%);stroke-opacity:1;stroke-miterlimit:3.25;" d="M 182.925781 110.921875 L 181.777344 112.070313 L 182.351563 117.246094 L 211.675781 117.246094 L 212.824219 116.097656 L 212.824219 112.644531 L 211.675781 110.921875 " transform="matrix(1,0,0,1,-83,-6)"/>
<path style="fill:none;stroke-width:1.25;stroke-linecap:square;stroke-linejoin:miter;stroke:rgb(0%,0%,0%);stroke-opacity:1;stroke-miterlimit:3.25;" d="M 143.828125 115.519531 L 142.675781 114.371094 L 143.253906 112.644531 L 143.253906 98.273438 L 142.675781 97.121094 L 143.828125 95.972656 L 173.152344 95.972656 L 174.300781 97.121094 L 174.300781 114.371094 L 173.152344 115.519531 " transform="matrix(1,0,0,1,-83,-6)"/>
<path style="fill:none;stroke-width:1.25;stroke-linecap:square;stroke-linejoin:miter;stroke:rgb(0%,0%,0%);stroke-opacity:1;stroke-miterlimit:3.25;" d="M 143.828125 115.519531 L 173.152344 115.519531 " transform="matrix(1,0,0,1,-83,-6)"/>
<path style="fill:none;stroke-width:1.25;stroke-linecap:square;stroke-linejoin:miter;stroke:rgb(0%,0%,0%);stroke-opacity:1;stroke-miterlimit:3.25;" d="M 143.828125 115.519531 L 142.675781 116.671875 L 143.253906 118.394531 L 143.253906 132.769531 L 142.675781 133.921875 L 143.253906 134.496094 L 157.625 134.496094 L 158.777344 135.070313 " transform="matrix(1,0,0,1,-83,-6)"/>
<path style="fill:none;stroke-width:1.25;stroke-linecap:square;stroke-linejoin:miter;stroke:rgb(0%,0%,0%);stroke-opacity:1;stroke-miterlimit:3.25;" d="M 173.152344 115.519531 L 174.300781 116.671875 L 174.300781 133.34375 L 173.152344 134.496094 L 159.351563 134.496094 L 158.777344 135.070313 " transform="matrix(1,0,0,1,-83,-6)"/>
<path style="fill:none;stroke-width:1.25;stroke-linecap:square;stroke-linejoin:miter;stroke:rgb(0%,0%,0%);stroke-opacity:1;stroke-miterlimit:3.25;" d="M 119.105469 119.546875 L 119.105469 118.394531 " transform="matrix(1,0,0,1,-83,-6)"/>
<path style="fill:none;stroke-width:1.25;stroke-linecap:square;stroke-linejoin:miter;stroke:rgb(0%,0%,0%);stroke-opacity:1;stroke-miterlimit:3.25;" d="M 119.105469 124.71875 L 119.105469 123.570313 " transform="matrix(1,0,0,1,-83,-6)"/>
<path style="fill:none;stroke-width:1.25;stroke-linecap:square;stroke-linejoin:miter;stroke:rgb(0%,0%,0%);stroke-opacity:1;stroke-miterlimit:3.25;" d="M 119.105469 129.894531 L 119.105469 128.746094 " transform="matrix(1,0,0,1,-83,-6)"/>
<path style="fill:none;stroke-width:1.25;stroke-linecap:square;stroke-linejoin:miter;stroke:rgb(0%,0%,0%);stroke-opacity:1;stroke-miterlimit:3.25;" d="M 221.449219 128.746094 L 220.875 128.171875 L 220.875 105.171875 L 221.449219 104.597656 L 251.347656 104.597656 L 251.921875 105.171875 L 251.921875 127.59375 L 251.347656 128.746094 " transform="matrix(1,0,0,1,-83,-6)"/>
<path style="fill:none;stroke-width:1.25;stroke-linecap:square;stroke-linejoin:miter;stroke:rgb(0%,0%,0%);stroke-opacity:1;stroke-miterlimit:3.25;" d="M 221.449219 128.746094 L 251.347656 128.746094 " transform="matrix(1,0,0,1,-83,-6)"/>
<path style="fill:none;stroke-width:1.25;stroke-linecap:square;stroke-linejoin:miter;stroke:rgb(0%,0%,0%);stroke-opacity:1;stroke-miterlimit:3.25;" d="M 221.449219 128.746094 L 220.875 129.320313 L 220.875 137.945313 " transform="matrix(1,0,0,1,-83,-6)"/>
<path style="fill:none;stroke-width:1.25;stroke-linecap:square;stroke-linejoin:miter;stroke:rgb(0%,0%,0%);stroke-opacity:1;stroke-miterlimit:3.25;" d="M 251.347656 128.746094 L 251.921875 129.320313 L 251.921875 137.945313 " transform="matrix(1,0,0,1,-83,-6)"/>
<path style="fill:none;stroke-width:1.25;stroke-linecap:square;stroke-linejoin:miter;stroke:rgb(0%,0%,0%);stroke-opacity:1;stroke-miterlimit:3.25;" d="M 260.546875 130.46875 L 289.871094 130.46875 " transform="matrix(1,0,0,1,-83,-6)"/>
<path style="fill:none;stroke-width:1.25;stroke-linecap:square;stroke-linejoin:miter;stroke:rgb(0%,0%,0%);stroke-opacity:1;stroke-miterlimit:3.25;" d="M 260.546875 130.46875 L 259.972656 131.046875 L 260.546875 132.769531 L 274.921875 132.769531 " transform="matrix(1,0,0,1,-83,-6)"/>
<path style="fill:none;stroke-width:1.25;stroke-linecap:square;stroke-linejoin:miter;stroke:rgb(0%,0%,0%);stroke-opacity:1;stroke-miterlimit:3.25;" d="M 289.871094 130.46875 L 291.019531 131.621094 L 289.871094 132.769531 L 274.921875 132.769531 " transform="matrix(1,0,0,1,-83,-6)"/>
<path style="fill:none;stroke-width:1.25;stroke-linecap:square;stroke-linejoin:miter;stroke:rgb(0%,0%,0%);stroke-opacity:1;stroke-miterlimit:3.25;" d="M 274.921875 132.769531 L 275.496094 135.070313 " transform="matrix(1,0,0,1,-83,-6)"/>
<path style="fill:none;stroke-width:1.25;stroke-linecap:square;stroke-linejoin:miter;stroke:rgb(0%,0%,0%);stroke-opacity:1;stroke-miterlimit:3.25;" d="M 119.105469 135.070313 L 119.105469 133.921875 " transform="matrix(1,0,0,1,-83,-6)"/>
<path style="fill:none;stroke-width:1.25;stroke-linecap:square;stroke-linejoin:miter;stroke:rgb(0%,0%,0%);stroke-opacity:1;stroke-miterlimit:3.25;" d="M 88.628906 134.496094 L 90.929688 134.496094 " transform="matrix(1,0,0,1,-83,-6)"/>
<path style="fill:none;stroke-width:1.25;stroke-linecap:square;stroke-linejoin:miter;stroke:rgb(0%,0%,0%);stroke-opacity:1;stroke-miterlimit:3.25;" d="M 90.929688 134.496094 L 92.65625 137.945313 " transform="matrix(1,0,0,1,-83,-6)"/>
<path style="fill:none;stroke-width:1.25;stroke-linecap:square;stroke-linejoin:miter;stroke:rgb(0%,0%,0%);stroke-opacity:1;stroke-miterlimit:3.25;" d="M 158.777344 135.070313 L 158.203125 137.945313 " transform="matrix(1,0,0,1,-83,-6)"/>
<path style="fill:none;stroke-width:1.25;stroke-linecap:square;stroke-linejoin:miter;stroke:rgb(0%,0%,0%);stroke-opacity:1;stroke-miterlimit:3.25;" d="M 92.65625 137.945313 L 118.527344 137.945313 L 119.105469 138.519531 " transform="matrix(1,0,0,1,-83,-6)"/>
<path style="fill:none;stroke-width:1.25;stroke-linecap:square;stroke-linejoin:miter;stroke:rgb(0%,0%,0%);stroke-opacity:1;stroke-miterlimit:3.25;" d="M 92.65625 137.945313 L 92.078125 138.519531 L 92.078125 177.617188 L 91.503906 178.191406 " transform="matrix(1,0,0,1,-83,-6)"/>
<path style="fill:none;stroke-width:1.25;stroke-linecap:square;stroke-linejoin:miter;stroke:rgb(0%,0%,0%);stroke-opacity:1;stroke-miterlimit:3.25;" d="M 158.203125 137.945313 L 119.679688 137.945313 L 119.105469 138.519531 " transform="matrix(1,0,0,1,-83,-6)"/>
<path style="fill:none;stroke-width:1.25;stroke-linecap:square;stroke-linejoin:miter;stroke:rgb(0%,0%,0%);stroke-opacity:1;stroke-miterlimit:3.25;" d="M 158.203125 137.945313 L 220.875 137.945313 " transform="matrix(1,0,0,1,-83,-6)"/>
<path style="fill:none;stroke-width:1.25;stroke-linecap:square;stroke-linejoin:miter;stroke:rgb(0%,0%,0%);stroke-opacity:1;stroke-miterlimit:3.25;" d="M 220.875 137.945313 L 251.921875 137.945313 " transform="matrix(1,0,0,1,-83,-6)"/>
<path style="fill:none;stroke-width:1.25;stroke-linecap:square;stroke-linejoin:miter;stroke:rgb(0%,0%,0%);stroke-opacity:1;stroke-miterlimit:3.25;" d="M 220.875 137.945313 L 220.875 148.871094 L 222.023438 150.019531 L 251.347656 150.019531 L 251.921875 149.445313 L 251.921875 137.945313 " transform="matrix(1,0,0,1,-83,-6)"/>
<path style="fill:none;stroke-width:1.25;stroke-linecap:square;stroke-linejoin:miter;stroke:rgb(0%,0%,0%);stroke-opacity:1;stroke-miterlimit:3.25;" d="M 251.921875 137.945313 L 274.921875 137.945313 L 275.496094 138.519531 " transform="matrix(1,0,0,1,-83,-6)"/>
<path style="fill:none;stroke-width:1.25;stroke-linecap:square;stroke-linejoin:miter;stroke:rgb(0%,0%,0%);stroke-opacity:1;stroke-miterlimit:3.25;" d="M 301.371094 137.945313 L 276.070313 137.945313 L 275.496094 138.519531 " transform="matrix(1,0,0,1,-83,-6)"/>
<path style="fill:none;stroke-width:1.25;stroke-linecap:square;stroke-linejoin:miter;stroke:rgb(0%,0%,0%);stroke-opacity:1;stroke-miterlimit:3.25;" d="M 301.371094 137.945313 L 302.519531 139.09375 L 302.519531 219.589844 L 301.371094 220.742188 L 275.496094 220.742188 " transform="matrix(1,0,0,1,-83,-6)"/>
<path style="fill:none;stroke-width:1.25;stroke-linecap:square;stroke-linejoin:miter;stroke:rgb(0%,0%,0%);stroke-opacity:1;stroke-miterlimit:3.25;" d="M 119.105469 140.246094 L 119.105469 138.519531 " transform="matrix(1,0,0,1,-83,-6)"/>
<path style="fill:none;stroke-width:1.25;stroke-linecap:square;stroke-linejoin:miter;stroke:rgb(0%,0%,0%);stroke-opacity:1;stroke-miterlimit:3.25;" d="M 275.496094 140.246094 L 275.496094 138.519531 " transform="matrix(1,0,0,1,-83,-6)"/>
<path style="fill:none;stroke-width:1.25;stroke-linecap:square;stroke-linejoin:miter;stroke:rgb(0%,0%,0%);stroke-opacity:1;stroke-miterlimit:3.25;" d="M 275.496094 144.84375 L 275.496094 143.695313 " transform="matrix(1,0,0,1,-83,-6)"/>
<path style="fill:none;stroke-width:1.25;stroke-linecap:square;stroke-linejoin:miter;stroke:rgb(0%,0%,0%);stroke-opacity:1;stroke-miterlimit:3.25;" d="M 275.496094 150.019531 L 275.496094 148.871094 " transform="matrix(1,0,0,1,-83,-6)"/>
<path style="fill:none;stroke-width:1.25;stroke-linecap:square;stroke-linejoin:miter;stroke:rgb(0%,0%,0%);stroke-opacity:1;stroke-miterlimit:3.25;" d="M 165.675781 151.746094 L 150.152344 152.320313 " transform="matrix(1,0,0,1,-83,-6)"/>
<path style="fill:none;stroke-width:1.25;stroke-linecap:square;stroke-linejoin:miter;stroke:rgb(0%,0%,0%);stroke-opacity:1;stroke-miterlimit:3.25;" d="M 236.398438 154.042969 L 236.398438 152.894531 " transform="matrix(1,0,0,1,-83,-6)"/>
<path style="fill:none;stroke-width:1.25;stroke-linecap:square;stroke-linejoin:miter;stroke:rgb(0%,0%,0%);stroke-opacity:1;stroke-miterlimit:3.25;" d="M 275.496094 155.195313 L 275.496094 154.042969 " transform="matrix(1,0,0,1,-83,-6)"/>
<path style="fill:none;stroke-width:1.25;stroke-linecap:square;stroke-linejoin:miter;stroke:rgb(0%,0%,0%);stroke-opacity:1;stroke-miterlimit:3.25;" d="M 126.578125 160.367188 L 112.777344 160.367188 L 111.628906 160.945313 " transform="matrix(1,0,0,1,-83,-6)"/>
<path style="fill:none;stroke-width:1.25;stroke-linecap:square;stroke-linejoin:miter;stroke:rgb(0%,0%,0%);stroke-opacity:1;stroke-miterlimit:3.25;" d="M 268.023438 160.367188 L 282.972656 160.367188 " transform="matrix(1,0,0,1,-83,-6)"/>
<path style="fill:none;stroke-width:1.25;stroke-linecap:square;stroke-linejoin:miter;stroke:rgb(0%,0%,0%);stroke-opacity:1;stroke-miterlimit:3.25;" d="M 229.5 168.992188 L 243.296875 168.992188 L 244.449219 169.570313 " transform="matrix(1,0,0,1,-83,-6)"/>
<path style="fill:none;stroke-width:1.25;stroke-linecap:square;stroke-linejoin:miter;stroke:rgb(0%,0%,0%);stroke-opacity:1;stroke-miterlimit:3.25;" d="M 87.480469 178.191406 L 91.503906 178.191406 " transform="matrix(1,0,0,1,-83,-6)"/>
<path style="fill:none;stroke-width:1.25;stroke-linecap:square;stroke-linejoin:miter;stroke:rgb(0%,0%,0%);stroke-opacity:1;stroke-miterlimit:3.25;" d="M 91.503906 178.191406 L 92.078125 178.769531 L 92.078125 219.589844 L 93.230469 220.742188 L 119.105469 220.742188 " transform="matrix(1,0,0,1,-83,-6)"/>
<path style="fill:none;stroke-width:1.25;stroke-linecap:square;stroke-linejoin:miter;stroke:rgb(0%,0%,0%);stroke-opacity:1;stroke-miterlimit:3.25;" d="M 117.953125 200.042969 L 119.105469 200.617188 L 119.105469 201.765625 " transform="matrix(1,0,0,1,-83,-6)"/>
<path style="fill:none;stroke-width:1.25;stroke-linecap:square;stroke-linejoin:miter;stroke:rgb(0%,0%,0%);stroke-opacity:1;stroke-miterlimit:3.25;" d="M 119.105469 220.742188 L 158.777344 220.742188 " transform="matrix(1,0,0,1,-83,-6)"/>
<path style="fill:none;stroke-width:1.25;stroke-linecap:square;stroke-linejoin:miter;stroke:rgb(0%,0%,0%);stroke-opacity:1;stroke-miterlimit:3.25;" d="M 119.105469 224.765625 L 119.105469 220.742188 " transform="matrix(1,0,0,1,-83,-6)"/>
<path style="fill:none;stroke-width:1.25;stroke-linecap:square;stroke-linejoin:miter;stroke:rgb(0%,0%,0%);stroke-opacity:1;stroke-miterlimit:3.25;" d="M 158.777344 220.742188 L 197.300781 220.742188 " transform="matrix(1,0,0,1,-83,-6)"/>
<path style="fill:none;stroke-width:1.25;stroke-linecap:square;stroke-linejoin:miter;stroke:rgb(0%,0%,0%);stroke-opacity:1;stroke-miterlimit:3.25;" d="M 158.777344 220.742188 L 158.203125 224.765625 " transform="matrix(1,0,0,1,-83,-6)"/>
<path style="fill:none;stroke-width:1.25;stroke-linecap:square;stroke-linejoin:miter;stroke:rgb(0%,0%,0%);stroke-opacity:1;stroke-miterlimit:3.25;" d="M 197.300781 220.742188 L 236.398438 220.742188 " transform="matrix(1,0,0,1,-83,-6)"/>
<path style="fill:none;stroke-width:1.25;stroke-linecap:square;stroke-linejoin:miter;stroke:rgb(0%,0%,0%);stroke-opacity:1;stroke-miterlimit:3.25;" d="M 197.300781 224.191406 L 197.300781 220.742188 " transform="matrix(1,0,0,1,-83,-6)"/>
<path style="fill:none;stroke-width:1.25;stroke-linecap:square;stroke-linejoin:miter;stroke:rgb(0%,0%,0%);stroke-opacity:1;stroke-miterlimit:3.25;" d="M 236.398438 220.742188 L 275.496094 220.742188 " transform="matrix(1,0,0,1,-83,-6)"/>
<path style="fill:none;stroke-width:1.25;stroke-linecap:square;stroke-linejoin:miter;stroke:rgb(0%,0%,0%);stroke-opacity:1;stroke-miterlimit:3.25;" d="M 236.398438 224.765625 L 236.398438 220.742188 " transform="matrix(1,0,0,1,-83,-6)"/>
<path style="fill:none;stroke-width:1.25;stroke-linecap:square;stroke-linejoin:miter;stroke:rgb(0%,0%,0%);stroke-opacity:1;stroke-miterlimit:3.25;" d="M 275.496094 224.765625 L 275.496094 220.742188 " transform="matrix(1,0,0,1,-83,-6)"/>
</g>
</svg>
