<?xml version="1.0" encoding="UTF-8"?>
<svg xmlns="http://www.w3.org/2000/svg" xmlns:xlink="http://www.w3.org/1999/xlink" width="221pt" height="107pt" viewBox="0 0 221 107" version="1.1">
<g id="surface42">
<path style="fill:none;stroke-width:1.25;stroke-linecap:square;stroke-linejoin:miter;stroke:rgb(0%,0%,0%);stroke-opacity:1;stroke-miterlimit:3.25;" d="M 166.761719 23.605469 L 167.035156 23.875 " transform="matrix(1,0,0,1,-83,-6)"/>
<path style="fill:none;stroke-width:1.25;stroke-linecap:square;stroke-linejoin:miter;stroke:rgb(0%,0%,0%);stroke-opacity:1;stroke-miterlimit:3.25;" d="M 129.292969 61.074219 L 129.566406 61.074219 " transform="matrix(1,0,0,1,-83,-6)"/>
<path style="fill:none;stroke-width:1.25;stroke-linecap:square;stroke-linejoin:miter;stroke:rgb(0%,0%,0%);stroke-opacity:1;stroke-miterlimit:3.25;" d="M 245.5 61.074219 L 245.773438 61.074219 " transform="matrix(1,0,0,1,-83,-6)"/>
<path style="fill:none;stroke-width:1.25;stroke-linecap:square;stroke-linejoin:miter;stroke:rgb(0%,0%,0%);stroke-opacity:1;stroke-miterlimit:3.25;" d="M 298.449219 61.074219 L 298.71875 61.074219 " transform="matrix(1,0,0,1,-83,-6)"/>
<path style="fill:none;stroke-width:1.25;stroke-linecap:square;stroke-linejoin:miter;stroke:rgb(0%,0%,0%);stroke-opacity:1;stroke-miterlimit:3.25;" d="M 259.890625 75.191406 L 260.164063 75.464844 " transform="matrix(1,0,0,1,-83,-6)"/>
<path style="fill:none;stroke-width:1.25;stroke-linecap:square;stroke-linejoin:miter;stroke:rgb(0%,0%,0%);stroke-opacity:1;stroke-miterlimit:3.25;" d="M 166.492188 98.542969 L 166.761719 98.273438 " transform="matrix(1,0,0,1,-83,-6)"/>
<path style="fill:none;stroke-width:1.25;stroke-linecap:square;stroke-linejoin:miter;stroke:rgb(0%,0%,0%);stroke-opacity:1;stroke-miterlimit:3.25;" d="M 165.949219 21.703125 L 166.761719 23.605469 " transform="matrix(1,0,0,1,-83,-6)"/>
<path style="fill:none;stroke-width:1.25;stroke-linecap:square;stroke-linejoin:miter;stroke:rgb(0%,0%,0%);stroke-opacity:1;stroke-miterlimit:3.25;" d="M 166.761719 23.605469 L 134.996094 23.605469 L 134.722656 23.875 L 134.722656 61.074219 " transform="matrix(1,0,0,1,-83,-6)"/>
<path style="fill:none;stroke-width:1.25;stroke-linecap:square;stroke-linejoin:miter;stroke:rgb(0%,0%,0%);stroke-opacity:1;stroke-miterlimit:3.25;" d="M 171.105469 23.605469 L 170.5625 23.875 L 167.304688 23.605469 L 167.035156 23.875 " transform="matrix(1,0,0,1,-83,-6)"/>
<path style="fill:none;stroke-width:1.25;stroke-linecap:square;stroke-linejoin:miter;stroke:rgb(0%,0%,0%);stroke-opacity:1;stroke-miterlimit:3.25;" d="M 216.449219 23.605469 L 259.078125 23.605469 L 259.621094 23.875 L 259.890625 24.148438 L 259.890625 45.871094 " transform="matrix(1,0,0,1,-83,-6)"/>
<path style="fill:none;stroke-width:1.25;stroke-linecap:square;stroke-linejoin:miter;stroke:rgb(0%,0%,0%);stroke-opacity:1;stroke-miterlimit:3.25;" d="M 167.035156 23.875 L 165.40625 26.320313 " transform="matrix(1,0,0,1,-83,-6)"/>
<path style="fill:none;stroke-width:1.25;stroke-linecap:square;stroke-linejoin:miter;stroke:rgb(0%,0%,0%);stroke-opacity:1;stroke-miterlimit:3.25;" d="M 262.605469 44.785156 L 260.707031 45.871094 L 259.890625 45.871094 " transform="matrix(1,0,0,1,-83,-6)"/>
<path style="fill:none;stroke-width:1.25;stroke-linecap:square;stroke-linejoin:miter;stroke:rgb(0%,0%,0%);stroke-opacity:1;stroke-miterlimit:3.25;" d="M 257.71875 45.328125 L 258.804688 45.871094 L 259.890625 45.871094 " transform="matrix(1,0,0,1,-83,-6)"/>
<path style="fill:none;stroke-width:1.25;stroke-linecap:square;stroke-linejoin:miter;stroke:rgb(0%,0%,0%);stroke-opacity:1;stroke-miterlimit:3.25;" d="M 259.890625 45.871094 L 260.164063 46.683594 L 259.890625 51.570313 " transform="matrix(1,0,0,1,-83,-6)"/>
<path style="fill:none;stroke-width:1.25;stroke-linecap:square;stroke-linejoin:miter;stroke:rgb(0%,0%,0%);stroke-opacity:1;stroke-miterlimit:3.25;" d="M 259.890625 51.570313 L 255.546875 52.65625 L 254.460938 53.199219 L 253.375 54.558594 " transform="matrix(1,0,0,1,-83,-6)"/>
<path style="fill:none;stroke-width:1.25;stroke-linecap:square;stroke-linejoin:miter;stroke:rgb(0%,0%,0%);stroke-opacity:1;stroke-miterlimit:3.25;" d="M 259.890625 51.570313 L 260.707031 52.113281 L 261.519531 51.84375 L 264.238281 52.65625 L 265.324219 53.199219 L 266.679688 54.828125 " transform="matrix(1,0,0,1,-83,-6)"/>
<path style="fill:none;stroke-width:1.25;stroke-linecap:square;stroke-linejoin:miter;stroke:rgb(0%,0%,0%);stroke-opacity:1;stroke-miterlimit:3.25;" d="M 253.375 54.558594 L 251.476563 56.730469 L 250.117188 60.800781 " transform="matrix(1,0,0,1,-83,-6)"/>
<path style="fill:none;stroke-width:1.25;stroke-linecap:square;stroke-linejoin:miter;stroke:rgb(0%,0%,0%);stroke-opacity:1;stroke-miterlimit:3.25;" d="M 253.375 54.558594 L 258.535156 59.445313 L 259.621094 61.074219 " transform="matrix(1,0,0,1,-83,-6)"/>
<path style="fill:none;stroke-width:1.25;stroke-linecap:square;stroke-linejoin:miter;stroke:rgb(0%,0%,0%);stroke-opacity:1;stroke-miterlimit:3.25;" d="M 266.679688 54.828125 L 266.136719 54.828125 L 264.507813 56.1875 L 260.976563 59.714844 L 260.164063 61.074219 " transform="matrix(1,0,0,1,-83,-6)"/>
<path style="fill:none;stroke-width:1.25;stroke-linecap:square;stroke-linejoin:miter;stroke:rgb(0%,0%,0%);stroke-opacity:1;stroke-miterlimit:3.25;" d="M 266.679688 54.828125 L 267.765625 55.914063 L 269.125 58.359375 L 269.394531 61.074219 " transform="matrix(1,0,0,1,-83,-6)"/>
<path style="fill:none;stroke-width:1.25;stroke-linecap:square;stroke-linejoin:miter;stroke:rgb(0%,0%,0%);stroke-opacity:1;stroke-miterlimit:3.25;" d="M 244.957031 59.171875 L 245.5 59.988281 L 245.5 61.074219 " transform="matrix(1,0,0,1,-83,-6)"/>
<path style="fill:none;stroke-width:1.25;stroke-linecap:square;stroke-linejoin:miter;stroke:rgb(0%,0%,0%);stroke-opacity:1;stroke-miterlimit:3.25;" d="M 297.902344 59.171875 L 298.449219 59.988281 L 298.449219 61.074219 " transform="matrix(1,0,0,1,-83,-6)"/>
<path style="fill:none;stroke-width:1.25;stroke-linecap:square;stroke-linejoin:miter;stroke:rgb(0%,0%,0%);stroke-opacity:1;stroke-miterlimit:3.25;" d="M 166.21875 59.445313 L 166.761719 60.257813 L 166.761719 61.074219 " transform="matrix(1,0,0,1,-83,-6)"/>
<path style="fill:none;stroke-width:1.25;stroke-linecap:square;stroke-linejoin:miter;stroke:rgb(0%,0%,0%);stroke-opacity:1;stroke-miterlimit:3.25;" d="M 129.292969 61.074219 L 129.292969 59.988281 " transform="matrix(1,0,0,1,-83,-6)"/>
<path style="fill:none;stroke-width:1.25;stroke-linecap:square;stroke-linejoin:miter;stroke:rgb(0%,0%,0%);stroke-opacity:1;stroke-miterlimit:3.25;" d="M 250.117188 60.800781 L 249.847656 61.074219 L 245.773438 61.074219 " transform="matrix(1,0,0,1,-83,-6)"/>
<path style="fill:none;stroke-width:1.25;stroke-linecap:square;stroke-linejoin:miter;stroke:rgb(0%,0%,0%);stroke-opacity:1;stroke-miterlimit:3.25;" d="M 250.117188 60.800781 L 250.933594 62.160156 L 250.660156 62.433594 L 250.933594 64.0625 L 252.019531 66.234375 L 253.375 67.589844 " transform="matrix(1,0,0,1,-83,-6)"/>
<path style="fill:none;stroke-width:1.25;stroke-linecap:square;stroke-linejoin:miter;stroke:rgb(0%,0%,0%);stroke-opacity:1;stroke-miterlimit:3.25;" d="M 87.480469 61.074219 L 129.292969 61.074219 " transform="matrix(1,0,0,1,-83,-6)"/>
<path style="fill:none;stroke-width:1.25;stroke-linecap:square;stroke-linejoin:miter;stroke:rgb(0%,0%,0%);stroke-opacity:1;stroke-miterlimit:3.25;" d="M 129.566406 61.074219 L 134.722656 61.074219 " transform="matrix(1,0,0,1,-83,-6)"/>
<path style="fill:none;stroke-width:1.25;stroke-linecap:square;stroke-linejoin:miter;stroke:rgb(0%,0%,0%);stroke-opacity:1;stroke-miterlimit:3.25;" d="M 129.566406 61.074219 L 129.023438 62.160156 " transform="matrix(1,0,0,1,-83,-6)"/>
<path style="fill:none;stroke-width:1.25;stroke-linecap:square;stroke-linejoin:miter;stroke:rgb(0%,0%,0%);stroke-opacity:1;stroke-miterlimit:3.25;" d="M 134.722656 61.074219 L 166.761719 61.074219 " transform="matrix(1,0,0,1,-83,-6)"/>
<path style="fill:none;stroke-width:1.25;stroke-linecap:square;stroke-linejoin:miter;stroke:rgb(0%,0%,0%);stroke-opacity:1;stroke-miterlimit:3.25;" d="M 134.722656 61.074219 L 134.722656 98 L 135.265625 98.542969 L 166.492188 98.542969 " transform="matrix(1,0,0,1,-83,-6)"/>
<path style="fill:none;stroke-width:1.25;stroke-linecap:square;stroke-linejoin:miter;stroke:rgb(0%,0%,0%);stroke-opacity:1;stroke-miterlimit:3.25;" d="M 166.761719 61.074219 L 171.105469 61.074219 " transform="matrix(1,0,0,1,-83,-6)"/>
<path style="fill:none;stroke-width:1.25;stroke-linecap:square;stroke-linejoin:miter;stroke:rgb(0%,0%,0%);stroke-opacity:1;stroke-miterlimit:3.25;" d="M 166.761719 61.074219 L 165.949219 62.703125 " transform="matrix(1,0,0,1,-83,-6)"/>
<path style="fill:none;stroke-width:1.25;stroke-linecap:square;stroke-linejoin:miter;stroke:rgb(0%,0%,0%);stroke-opacity:1;stroke-miterlimit:3.25;" d="M 216.449219 61.074219 L 245.5 61.074219 " transform="matrix(1,0,0,1,-83,-6)"/>
<path style="fill:none;stroke-width:1.25;stroke-linecap:square;stroke-linejoin:miter;stroke:rgb(0%,0%,0%);stroke-opacity:1;stroke-miterlimit:3.25;" d="M 245.773438 61.074219 L 245.5 62.160156 L 243.871094 64.332031 " transform="matrix(1,0,0,1,-83,-6)"/>
<path style="fill:none;stroke-width:1.25;stroke-linecap:square;stroke-linejoin:miter;stroke:rgb(0%,0%,0%);stroke-opacity:1;stroke-miterlimit:3.25;" d="M 259.621094 61.074219 L 260.164063 61.074219 " transform="matrix(1,0,0,1,-83,-6)"/>
<path style="fill:none;stroke-width:1.25;stroke-linecap:square;stroke-linejoin:miter;stroke:rgb(0%,0%,0%);stroke-opacity:1;stroke-miterlimit:3.25;" d="M 259.621094 61.074219 L 253.375 67.589844 " transform="matrix(1,0,0,1,-83,-6)"/>
<path style="fill:none;stroke-width:1.25;stroke-linecap:square;stroke-linejoin:miter;stroke:rgb(0%,0%,0%);stroke-opacity:1;stroke-miterlimit:3.25;" d="M 260.164063 61.074219 L 262.0625 63.519531 L 262.878906 63.789063 L 263.964844 64.875 L 263.964844 65.417969 L 266.410156 67.320313 " transform="matrix(1,0,0,1,-83,-6)"/>
<path style="fill:none;stroke-width:1.25;stroke-linecap:square;stroke-linejoin:miter;stroke:rgb(0%,0%,0%);stroke-opacity:1;stroke-miterlimit:3.25;" d="M 269.394531 61.074219 L 298.449219 61.074219 " transform="matrix(1,0,0,1,-83,-6)"/>
<path style="fill:none;stroke-width:1.25;stroke-linecap:square;stroke-linejoin:miter;stroke:rgb(0%,0%,0%);stroke-opacity:1;stroke-miterlimit:3.25;" d="M 269.394531 61.074219 L 269.125 63.519531 L 268.308594 64.605469 L 268.308594 65.417969 L 266.410156 67.320313 " transform="matrix(1,0,0,1,-83,-6)"/>
<path style="fill:none;stroke-width:1.25;stroke-linecap:square;stroke-linejoin:miter;stroke:rgb(0%,0%,0%);stroke-opacity:1;stroke-miterlimit:3.25;" d="M 298.71875 61.074219 L 302.519531 61.074219 " transform="matrix(1,0,0,1,-83,-6)"/>
<path style="fill:none;stroke-width:1.25;stroke-linecap:square;stroke-linejoin:miter;stroke:rgb(0%,0%,0%);stroke-opacity:1;stroke-miterlimit:3.25;" d="M 298.71875 61.074219 L 298.449219 62.160156 L 296.816406 64.332031 " transform="matrix(1,0,0,1,-83,-6)"/>
<path style="fill:none;stroke-width:1.25;stroke-linecap:square;stroke-linejoin:miter;stroke:rgb(0%,0%,0%);stroke-opacity:1;stroke-miterlimit:3.25;" d="M 266.410156 67.320313 L 265.050781 68.949219 L 263.691406 69.21875 L 262.605469 70.035156 L 259.890625 70.304688 " transform="matrix(1,0,0,1,-83,-6)"/>
<path style="fill:none;stroke-width:1.25;stroke-linecap:square;stroke-linejoin:miter;stroke:rgb(0%,0%,0%);stroke-opacity:1;stroke-miterlimit:3.25;" d="M 253.375 67.589844 L 254.734375 68.949219 L 256.089844 69.21875 L 257.175781 70.035156 L 259.890625 70.304688 " transform="matrix(1,0,0,1,-83,-6)"/>
<path style="fill:none;stroke-width:1.25;stroke-linecap:square;stroke-linejoin:miter;stroke:rgb(0%,0%,0%);stroke-opacity:1;stroke-miterlimit:3.25;" d="M 259.890625 75.191406 L 259.890625 70.304688 " transform="matrix(1,0,0,1,-83,-6)"/>
<path style="fill:none;stroke-width:1.25;stroke-linecap:square;stroke-linejoin:miter;stroke:rgb(0%,0%,0%);stroke-opacity:1;stroke-miterlimit:3.25;" d="M 259.890625 75.191406 L 259.078125 75.191406 L 257.449219 76.277344 " transform="matrix(1,0,0,1,-83,-6)"/>
<path style="fill:none;stroke-width:1.25;stroke-linecap:square;stroke-linejoin:miter;stroke:rgb(0%,0%,0%);stroke-opacity:1;stroke-miterlimit:3.25;" d="M 260.164063 75.464844 L 260.976563 75.464844 L 263.148438 76.820313 " transform="matrix(1,0,0,1,-83,-6)"/>
<path style="fill:none;stroke-width:1.25;stroke-linecap:square;stroke-linejoin:miter;stroke:rgb(0%,0%,0%);stroke-opacity:1;stroke-miterlimit:3.25;" d="M 260.164063 75.464844 L 259.890625 75.734375 L 259.890625 96.914063 L 259.078125 97.730469 L 216.449219 97.730469 " transform="matrix(1,0,0,1,-83,-6)"/>
<path style="fill:none;stroke-width:1.25;stroke-linecap:square;stroke-linejoin:miter;stroke:rgb(0%,0%,0%);stroke-opacity:1;stroke-miterlimit:3.25;" d="M 165.675781 95.828125 L 166.761719 98.273438 " transform="matrix(1,0,0,1,-83,-6)"/>
<path style="fill:none;stroke-width:1.25;stroke-linecap:square;stroke-linejoin:miter;stroke:rgb(0%,0%,0%);stroke-opacity:1;stroke-miterlimit:3.25;" d="M 166.761719 98.273438 L 171.105469 98.542969 " transform="matrix(1,0,0,1,-83,-6)"/>
<path style="fill:none;stroke-width:1.25;stroke-linecap:square;stroke-linejoin:miter;stroke:rgb(0%,0%,0%);stroke-opacity:1;stroke-miterlimit:3.25;" d="M 166.492188 98.542969 L 166.761719 99.085938 L 165.949219 100.171875 " transform="matrix(1,0,0,1,-83,-6)"/>
<path style="fill:none;stroke-width:1.25;stroke-linecap:square;stroke-linejoin:miter;stroke:rgb(0%,0%,0%);stroke-opacity:1;stroke-miterlimit:3.25;" d="M 216.449219 23.605469 L 216.179688 23.875 L 216.179688 36.636719 L 215.636719 37.179688 L 172.734375 37.179688 L 172.464844 36.910156 L 172.464844 10.574219 L 172.734375 10.300781 L 215.636719 10.300781 L 216.179688 10.84375 L 216.179688 23.332031 " transform="matrix(1,0,0,1,-83,-6)"/>
<path style="fill:none;stroke-width:1.25;stroke-linecap:square;stroke-linejoin:miter;stroke:rgb(0%,0%,0%);stroke-opacity:1;stroke-miterlimit:3.25;" d="M 216.449219 61.074219 L 216.179688 61.34375 L 216.179688 73.5625 L 215.636719 74.105469 L 172.734375 74.105469 L 172.464844 73.835938 L 172.464844 48.042969 L 172.734375 47.769531 L 215.636719 47.769531 L 216.179688 48.3125 L 216.179688 60.53125 L 216.449219 60.800781 " transform="matrix(1,0,0,1,-83,-6)"/>
<path style="fill:none;stroke-width:1.25;stroke-linecap:square;stroke-linejoin:miter;stroke:rgb(0%,0%,0%);stroke-opacity:1;stroke-miterlimit:3.25;" d="M 216.449219 97.730469 L 216.179688 98 L 216.179688 111.03125 L 215.636719 111.574219 L 172.734375 111.574219 L 172.464844 111.304688 L 172.464844 85.238281 L 173.007813 84.695313 L 215.636719 84.695313 L 216.179688 85.238281 L 216.179688 97.1875 L 216.449219 97.457031 " transform="matrix(1,0,0,1,-83,-6)"/>
</g>
</svg>
